<?xml version="1.0" standalone="no"?>
<!DOCTYPE svg PUBLIC "-//W3C//DTD SVG 1.1//EN" "http://www.w3.org/Graphics/SVG/1.1/DTD/svg11.dtd" >
<svg xmlns="http://www.w3.org/2000/svg" xmlns:xlink="http://www.w3.org/1999/xlink" version="1.1">
<metadata>
Created by FontForge 20170910 at Sat Feb 24 14:11:43 2018
 By Jimmy Wärting
(c) 2018, Creatype Studio Co.
</metadata>
<defs>
<font id="JelyttaRegular" horiz-adv-x="0" >
  <font-face 
    font-family="Jelytta"
    font-weight="400"
    font-stretch="normal"
    units-per-em="1000"
    panose-1="0 0 0 0 0 0 0 0 0 0"
    ascent="800"
    descent="-200"
    x-height="329.5"
    cap-height="924"
    bbox="-336 -503.364 1277.06 1037.39"
    underline-thickness="50"
    underline-position="-150"
    unicode-range="U+000A-00A0"
  />
<missing-glyph horiz-adv-x="500" 
 />
    <glyph glyph-name=".notdef" horiz-adv-x="500" 
 />
    <glyph glyph-name=".notdef" horiz-adv-x="500" 
 />
    <glyph glyph-name=".null" 
 />
    <glyph glyph-name="nonmarkingreturn" horiz-adv-x="333" 
 />
    <glyph glyph-name="LF" unicode="&#xa;" 
 />
    <glyph glyph-name="controlCR" unicode="&#xd;" 
 />
    <glyph glyph-name="space" unicode=" " horiz-adv-x="260" 
 />
    <glyph glyph-name="exclam" unicode="!" horiz-adv-x="423" 
d="M342 780q5 6 22.5 -3t31.5 -24.5t10 -23.5q-17 -34 -39.5 -74t-42 -72t-43 -72.5t-40.5 -72.5q-13 -23 -48 -89.5t-59.5 -112t-49.5 -88.5q-1 -2 -7.5 1t-12 8.5t-4.5 8.5q46 168 118 329t164 285zM42 99q7 2 22.5 -8t26 -22.5t5.5 -16.5q-17 -10 -33 -23q-2 -2 -6 -7
t-6 -7q-8 -6 -14 -13q-2 -7 -15 6q-4 5 -5 7q0 3 -2 8t-3.5 9.5t-1.5 8.5q-1 12 4 23q6 24 28 35z" />
    <glyph glyph-name="numbersign" unicode="#" horiz-adv-x="523" 
d="M470 448q11 -2 31 -22q13 -13 5 -17q-13 -6 -28 -11t-35.5 -8t-32 -4.5t-38 -3.5t-32.5 -2l-10 -35q56 6 112 6q12 -1 35 -23q15 -15 7 -18q-84 -24 -172 -30q-14 -73 -42 -141q-2 -5 -12.5 1t-19.5 15.5t-9 13.5q2 51 13 101l-28 -4q-13 -55 -33 -108q-2 -5 -15 2
t-25 18.5t-12 17.5q2 25 7 58q-62 -9 -110 -10q-1 0 -3.5 1.5t-4.5 3.5t-1 3q61 33 127 53q4 25 10 49q-29 -4 -54 -5q-12 -1 -34 20q-14 14 -6 18q54 23 111 37q16 61 39 129l2 -2q7 0 16.5 -4t18.5 -12t8 -15q-5 -42 -10 -80q29 5 56 8q19 43 45 82q1 1 4 0.5t7.5 -3.5
t8 -6t6 -6.5t2.5 -5.5q-5 -24 -13 -56q54 3 109 -5zM227 328l30 6q5 16 12 36q-4 0 -11 -1t-13 -2t-11 -2q-3 -20 -7 -37z" />
    <glyph glyph-name="dollar" unicode="$" horiz-adv-x="337" 
d="M223 289q86 -64 70 -122q-11 -40 -51 -54t-87 -3q-12 -56 -31 -109q-2 -3 -11 1.5t-17 12.5t-8 13q6 45 18 100q-31 17 -46 42t-8 54q4 14 32 -12q14 -13 15 -20q2 -16 16 -25q5 21 11 45t13 51.5t12 44.5q-8 5 -13 10q-72 58 -53 117q12 38 42 52t65 4q21 101 39 161
q0 2 5 -0.5t9.5 -6.5t4.5 -6q-7 -69 -24 -162q26 -14 41.5 -39t15.5 -55q-1 -2 -9 6q-4 21 -18.5 36.5t-35.5 21.5q-5 -28 -15.5 -80t-12.5 -59q16 -9 31 -19zM134 380q-2 -30 23 -49q5 23 6 28q7 31 19 87q-21 -7 -34 -25t-14 -41zM165 159q33 4 57.5 23.5t18.5 43.5
q-6 28 -53 59q-4 -19 -11.5 -61.5t-11.5 -64.5z" />
    <glyph glyph-name="percent" unicode="%" horiz-adv-x="418" 
d="M352 670q2 2 6 -0.5t7.5 -6.5t2.5 -6q-73 -250 -263 -656q-2 -3 -11.5 2t-18 13.5t-6.5 13.5q95 264 217 517q-63 -77 -113 -51q-1 -37 -25 -57.5t-62 -18.5q-8 1 -23 12.5t-13 19.5q5 21 7 29t8 24.5t12 24t17.5 16.5t26.5 13q6 2 15.5 -6t11.5 -14q4 -7 9 -14
q6 -4 11 -8q22 -28 167 134q7 7 17 19zM100 464q37 20 36 62q-29 -25 -36 -62zM304 252q12 -5 21 -15q17 -37 6 -77q-20 -38 -59 -57q-7 -5 -18.5 5.5t-13.5 18.5q-27 102 46 138q2 2 9 -3.5t9 -9.5zM297 178q14 33 5 68q-30 -24 -40 -60q-3 -22 1 -43q21 14 34 35z" />
    <glyph glyph-name="question" unicode="?" horiz-adv-x="504" 
d="M446 632q37 -82 -93 -197q-2 -2 -16 -13q-252 -200 -190 -227q11 -5 27 -23q10 -12 0 -11q-30 4 -53.5 22t-35.5 45q-6 15 -6.5 29.5t2.5 26t12 25t16.5 22t21.5 21t22 18.5t23 17q4 4 6 5q14 10 39 28t42.5 30.5t40.5 31t38.5 35.5t30 38.5t21.5 44.5q4 14 5 24.5t-3 17
t-9.5 11t-14.5 5.5t-17.5 1.5t-21 -1.5t-21.5 -3.5t-22 -4t-20 -3.5q-4 -1 -22.5 -3.5t-28 -4t-27 -5.5t-28 -8.5t-23 -11.5t-20 -16.5t-10.5 -21.5q-1 -6 -15 7l-5 7q-3 32 25.5 55t72 33.5t81 14.5t64.5 3q83 -2 112 -64zM130 86q2 -3 3 -4q7 -9 5 -13q-2 -2 -4 -1
q-1 -11 -14.5 -31t-12.5 -33q-3 -5 -11 -2t-15 7q-19 11 -27 31q-11 50 13 65q11 7 24 4q3 8 15 1q15 -9 24 -24z" />
    <glyph glyph-name="at" unicode="@" horiz-adv-x="561" 
d="M430 146q7 6 26.5 -10t14.5 -23q-44 -62 -116 -92.5t-148.5 -16t-125.5 76.5q-17 22 -24.5 48.5t-7 49.5t9 52.5t17 50t21.5 48.5q82 175 218 201q55 10 91 -5t49.5 -49t12 -76.5t-17.5 -89.5q-6 -18 -17 -39.5t-26.5 -44t-36.5 -33.5t-41 -3q-34 13 -33 79q-1 -2 -3 -8
q-10 -23 -16.5 -35.5t-18 -29t-25 -24.5t-29.5 -9q-25 4 -34 28q-10 56 16 106.5t77 75.5q5 3 16 -5.5t11 -15.5l4 -38q0 -6 -15 6q-6 5 -6 8l-2 7q-62 -56 -65 -139q26 7 47.5 32t33.5 53.5t15 55.5q0 7 16 -7q6 -6 7 -9v-13.5t0.5 -28l1 -31t1.5 -26.5t3 -12q-1 1 8.5 8
t20.5 15t14 11q52 55 60 132q4 22 5 38.5t-1.5 37.5t-15 34.5t-34.5 17.5q-31 6 -71 -15t-70 -49q-56 -51 -100.5 -143t-40.5 -161q4 -51 33 -74t69.5 -19.5t85 20.5t81 39.5t55.5 42.5z" />
    <glyph glyph-name="A" unicode="A" horiz-adv-x="803" 
d="M784 410q19 0 45 -34q10 -14 7 -16q-58 0 -121 -4q-1 -4 -2.5 -13t-2.5 -14q-40 -224 -49 -338q0 -3 -3 -34t-3.5 -41t-1 -38t2 -42.5t8.5 -34t16 -33.5q9 -12 -2 -10q-21 6 -44 26l-5 5q-18 25 -26 61t-7 68.5t2 66.5q12 165 43 328l6 38q-182 -17 -361 -54
q-79 -152 -184 -375q-2 -5 -18.5 3t-29.5 21.5t-9 22.5q74 156 153 310q-115 -24 -263 -62q-16 -4 -43 28q-17 20 -9 22q201 51 350 80q31 59 37 70q11 21 40.5 77.5t44 83t42 76.5t48 82t47.5 73t54 76t56 67q8 9 10.5 11.5t10 10.5t11 11t11 9.5t13 9t13 6t14 4.5t14 1
t15.5 -2q31 -8 49.5 -37.5t23.5 -64.5q3 -19 3.5 -41t-0.5 -39t-4 -43t-5 -39t-6.5 -43t-5.5 -39q-13 -80 -45 -258q30 1 60 1zM658 405q3 20 15 79.5t16.5 85t13.5 78t13 86t8 78t5 83.5q0 6 -3.5 30t-4.5 32l-19 -10q-11 -8 -22 -18t-22 -22.5t-18.5 -21.5t-19.5 -26
t-17 -23.5t-18 -26t-15 -23.5q-137 -205 -250 -423q168 31 338 42z" />
    <glyph glyph-name="A" unicode="&#xc5;" horiz-adv-x="803" 
d="M784 410q19 0 45 -34q10 -14 7 -16q-58 0 -121 -4q-1 -4 -2.5 -13t-2.5 -14q-40 -224 -49 -338q0 -3 -3 -34t-3.5 -41t-1 -38t2 -42.5t8.5 -34t16 -33.5q9 -12 -2 -10q-21 6 -44 26l-5 5q-18 25 -26 61t-7 68.5t2 66.5q12 165 43 328l6 38q-182 -17 -361 -54
q-79 -152 -184 -375q-2 -5 -18.5 3t-29.5 21.5t-9 22.5q74 156 153 310q-115 -24 -263 -62q-16 -4 -43 28q-17 20 -9 22q201 51 350 80q31 59 37 70q11 21 40.5 77.5t44 83t42 76.5t48 82t47.5 73t54 76t56 67q8 9 10.5 11.5t10 10.5t11 11t11 9.5t13 9t13 6t14 4.5t14 1
t15.5 -2q31 -8 49.5 -37.5t23.5 -64.5q3 -19 3.5 -41t-0.5 -39t-4 -43t-5 -39t-6.5 -43t-5.5 -39q-13 -80 -45 -258q30 1 60 1zM658 405q3 20 15 79.5t16.5 85t13.5 78t13 86t8 78t5 83.5q0 6 -3.5 30t-4.5 32l-19 -10q-11 -8 -22 -18t-22 -22.5t-18.5 -21.5t-19.5 -26
t-17 -23.5t-18 -26t-15 -23.5q-137 -205 -250 -423q168 31 338 42z" />
    <glyph glyph-name="A" unicode="&#xc4;" horiz-adv-x="803" 
d="M784 410q19 0 45 -34q10 -14 7 -16q-58 0 -121 -4q-1 -4 -2.5 -13t-2.5 -14q-40 -224 -49 -338q0 -3 -3 -34t-3.5 -41t-1 -38t2 -42.5t8.5 -34t16 -33.5q9 -12 -2 -10q-21 6 -44 26l-5 5q-18 25 -26 61t-7 68.5t2 66.5q12 165 43 328l6 38q-182 -17 -361 -54
q-79 -152 -184 -375q-2 -5 -18.5 3t-29.5 21.5t-9 22.5q74 156 153 310q-115 -24 -263 -62q-16 -4 -43 28q-17 20 -9 22q201 51 350 80q31 59 37 70q11 21 40.5 77.5t44 83t42 76.5t48 82t47.5 73t54 76t56 67q8 9 10.5 11.5t10 10.5t11 11t11 9.5t13 9t13 6t14 4.5t14 1
t15.5 -2q31 -8 49.5 -37.5t23.5 -64.5q3 -19 3.5 -41t-0.5 -39t-4 -43t-5 -39t-6.5 -43t-5.5 -39q-13 -80 -45 -258q30 1 60 1zM658 405q3 20 15 79.5t16.5 85t13.5 78t13 86t8 78t5 83.5q0 6 -3.5 30t-4.5 32l-19 -10q-11 -8 -22 -18t-22 -22.5t-18.5 -21.5t-19.5 -26
t-17 -23.5t-18 -26t-15 -23.5q-137 -205 -250 -423q168 31 338 42z" />
    <glyph glyph-name="A" unicode="&#xc3;" horiz-adv-x="803" 
d="M784 410q19 0 45 -34q10 -14 7 -16q-58 0 -121 -4q-1 -4 -2.5 -13t-2.5 -14q-40 -224 -49 -338q0 -3 -3 -34t-3.5 -41t-1 -38t2 -42.5t8.5 -34t16 -33.5q9 -12 -2 -10q-21 6 -44 26l-5 5q-18 25 -26 61t-7 68.5t2 66.5q12 165 43 328l6 38q-182 -17 -361 -54
q-79 -152 -184 -375q-2 -5 -18.5 3t-29.5 21.5t-9 22.5q74 156 153 310q-115 -24 -263 -62q-16 -4 -43 28q-17 20 -9 22q201 51 350 80q31 59 37 70q11 21 40.5 77.5t44 83t42 76.5t48 82t47.5 73t54 76t56 67q8 9 10.5 11.5t10 10.5t11 11t11 9.5t13 9t13 6t14 4.5t14 1
t15.5 -2q31 -8 49.5 -37.5t23.5 -64.5q3 -19 3.5 -41t-0.5 -39t-4 -43t-5 -39t-6.5 -43t-5.5 -39q-13 -80 -45 -258q30 1 60 1zM658 405q3 20 15 79.5t16.5 85t13.5 78t13 86t8 78t5 83.5q0 6 -3.5 30t-4.5 32l-19 -10q-11 -8 -22 -18t-22 -22.5t-18.5 -21.5t-19.5 -26
t-17 -23.5t-18 -26t-15 -23.5q-137 -205 -250 -423q168 31 338 42z" />
    <glyph glyph-name="A" unicode="&#xc2;" horiz-adv-x="803" 
d="M784 410q19 0 45 -34q10 -14 7 -16q-58 0 -121 -4q-1 -4 -2.5 -13t-2.5 -14q-40 -224 -49 -338q0 -3 -3 -34t-3.5 -41t-1 -38t2 -42.5t8.5 -34t16 -33.5q9 -12 -2 -10q-21 6 -44 26l-5 5q-18 25 -26 61t-7 68.5t2 66.5q12 165 43 328l6 38q-182 -17 -361 -54
q-79 -152 -184 -375q-2 -5 -18.5 3t-29.5 21.5t-9 22.5q74 156 153 310q-115 -24 -263 -62q-16 -4 -43 28q-17 20 -9 22q201 51 350 80q31 59 37 70q11 21 40.5 77.5t44 83t42 76.5t48 82t47.5 73t54 76t56 67q8 9 10.5 11.5t10 10.5t11 11t11 9.5t13 9t13 6t14 4.5t14 1
t15.5 -2q31 -8 49.5 -37.5t23.5 -64.5q3 -19 3.5 -41t-0.5 -39t-4 -43t-5 -39t-6.5 -43t-5.5 -39q-13 -80 -45 -258q30 1 60 1zM658 405q3 20 15 79.5t16.5 85t13.5 78t13 86t8 78t5 83.5q0 6 -3.5 30t-4.5 32l-19 -10q-11 -8 -22 -18t-22 -22.5t-18.5 -21.5t-19.5 -26
t-17 -23.5t-18 -26t-15 -23.5q-137 -205 -250 -423q168 31 338 42z" />
    <glyph glyph-name="A" unicode="&#xc1;" horiz-adv-x="803" 
d="M784 410q19 0 45 -34q10 -14 7 -16q-58 0 -121 -4q-1 -4 -2.5 -13t-2.5 -14q-40 -224 -49 -338q0 -3 -3 -34t-3.5 -41t-1 -38t2 -42.5t8.5 -34t16 -33.5q9 -12 -2 -10q-21 6 -44 26l-5 5q-18 25 -26 61t-7 68.5t2 66.5q12 165 43 328l6 38q-182 -17 -361 -54
q-79 -152 -184 -375q-2 -5 -18.5 3t-29.5 21.5t-9 22.5q74 156 153 310q-115 -24 -263 -62q-16 -4 -43 28q-17 20 -9 22q201 51 350 80q31 59 37 70q11 21 40.5 77.5t44 83t42 76.5t48 82t47.5 73t54 76t56 67q8 9 10.5 11.5t10 10.5t11 11t11 9.5t13 9t13 6t14 4.5t14 1
t15.5 -2q31 -8 49.5 -37.5t23.5 -64.5q3 -19 3.5 -41t-0.5 -39t-4 -43t-5 -39t-6.5 -43t-5.5 -39q-13 -80 -45 -258q30 1 60 1zM658 405q3 20 15 79.5t16.5 85t13.5 78t13 86t8 78t5 83.5q0 6 -3.5 30t-4.5 32l-19 -10q-11 -8 -22 -18t-22 -22.5t-18.5 -21.5t-19.5 -26
t-17 -23.5t-18 -26t-15 -23.5q-137 -205 -250 -423q168 31 338 42z" />
    <glyph glyph-name="A" unicode="&#xc0;" horiz-adv-x="803" 
d="M784 410q19 0 45 -34q10 -14 7 -16q-58 0 -121 -4q-1 -4 -2.5 -13t-2.5 -14q-40 -224 -49 -338q0 -3 -3 -34t-3.5 -41t-1 -38t2 -42.5t8.5 -34t16 -33.5q9 -12 -2 -10q-21 6 -44 26l-5 5q-18 25 -26 61t-7 68.5t2 66.5q12 165 43 328l6 38q-182 -17 -361 -54
q-79 -152 -184 -375q-2 -5 -18.5 3t-29.5 21.5t-9 22.5q74 156 153 310q-115 -24 -263 -62q-16 -4 -43 28q-17 20 -9 22q201 51 350 80q31 59 37 70q11 21 40.5 77.5t44 83t42 76.5t48 82t47.5 73t54 76t56 67q8 9 10.5 11.5t10 10.5t11 11t11 9.5t13 9t13 6t14 4.5t14 1
t15.5 -2q31 -8 49.5 -37.5t23.5 -64.5q3 -19 3.5 -41t-0.5 -39t-4 -43t-5 -39t-6.5 -43t-5.5 -39q-13 -80 -45 -258q30 1 60 1zM658 405q3 20 15 79.5t16.5 85t13.5 78t13 86t8 78t5 83.5q0 6 -3.5 30t-4.5 32l-19 -10q-11 -8 -22 -18t-22 -22.5t-18.5 -21.5t-19.5 -26
t-17 -23.5t-18 -26t-15 -23.5q-137 -205 -250 -423q168 31 338 42z" />
    <glyph glyph-name="B" unicode="B" horiz-adv-x="817" 
d="M478 390q55 -2 103 -16t91 -46.5t62 -81.5q19 -51 14.5 -99.5t-30 -94t-60 -82t-76.5 -63.5q-255 -168 -724 -188q-18 -1 -44 32q-13 17 -8 17q115 6 212 18q-16 8 -28 20t-9 21q70 232 165 455q-26 16 -33 34q-3 7 1 9q25 9 58 18q84 197 221 476q3 6 19 -2t29.5 -22
t9.5 -22q-115 -233 -189 -402q354 123 461 314q12 23 20 50t10.5 55.5t-5 57t-24.5 48.5q-18 22 -47 31t-66 6.5t-62.5 -7.5t-59.5 -14q-170 -46 -320 -139q-9 -5 -25 5.5t-26.5 24.5t-6.5 16q153 95 326 143q215 56 320 -63q30 -34 43 -74.5t10 -81.5t-19.5 -80.5
t-44.5 -73.5q-92 -113 -268 -199zM599 13q45 44 69 99.5t19 114.5q-2 31 -15 53t-31 34t-44.5 18.5t-49.5 7.5t-54 1q-113 -5 -222 -34q-22 -7 -43 -14q-108 -247 -187 -504q385 52 558 224z" />
    <glyph glyph-name="C" unicode="C" horiz-adv-x="779" 
d="M711 10q5 6 21.5 -3t29 -23t7.5 -21q-44 -62 -99 -116.5t-121.5 -99t-143 -64t-150.5 -6.5q-86 17 -140 63t-73.5 108t-17.5 141.5t20.5 157t49 159.5t60 143.5t59.5 115.5l9 15q25 47 42 75t52.5 77t65.5 75t71.5 42.5t81.5 5.5q38 -10 65.5 -35.5t41 -57t19.5 -71.5
t5 -75.5t-6 -71.5q-2 -13 -33 8q-29 19 -27 32q14 77 2 154q-6 35 -22 52t-37.5 16.5t-44.5 -11.5t-45 -31q-71 -61 -126 -147.5t-109 -199.5q-126 -265 -134 -465q-6 -136 42 -187q33 -35 91 -42t110.5 4.5t98.5 33.5q81 38 155 103.5t130 145.5z" />
    <glyph glyph-name="C" unicode="&#xc7;" horiz-adv-x="779" 
d="M711 10q5 6 21.5 -3t29 -23t7.5 -21q-44 -62 -99 -116.5t-121.5 -99t-143 -64t-150.5 -6.5q-86 17 -140 63t-73.5 108t-17.5 141.5t20.5 157t49 159.5t60 143.5t59.5 115.5l9 15q25 47 42 75t52.5 77t65.5 75t71.5 42.5t81.5 5.5q38 -10 65.5 -35.5t41 -57t19.5 -71.5
t5 -75.5t-6 -71.5q-2 -13 -33 8q-29 19 -27 32q14 77 2 154q-6 35 -22 52t-37.5 16.5t-44.5 -11.5t-45 -31q-71 -61 -126 -147.5t-109 -199.5q-126 -265 -134 -465q-6 -136 42 -187q33 -35 91 -42t110.5 4.5t98.5 33.5q81 38 155 103.5t130 145.5z" />
    <glyph glyph-name="D" unicode="D" horiz-adv-x="901" 
d="M161 -86q-4 -13 -34 8q-29 20 -26 32q104 430 279 838q2 5 18.5 -3t30 -22t9.5 -22q-174 -404 -277 -831zM920 593q14 -225 -226 -498q-45 -52 -100 -101t-121.5 -93.5t-134 -76.5t-139 -45t-136 -3t-125 54t-105.5 121q-7 12 2 11q16 -1 42 -24q5 -5 7 -8
q29 -48 71 -75.5t87 -33.5t97 2t98.5 25.5t92.5 42.5q75 40 150 97.5t145.5 132.5t124 155t84 172t27.5 179q-3 65 -35 117t-83 82t-112 44.5t-124.5 10t-118.5 -25.5q-186 -77 -296 -245q-4 -6 -20.5 2.5t-29.5 22.5t-8 21q41 62 96 115t119.5 92.5t139.5 58t148 9.5
q52 -7 105 -25.5t101.5 -49t86.5 -69.5t62.5 -89.5t27.5 -104.5z" />
    <glyph glyph-name="E" unicode="E" horiz-adv-x="700" 
d="M799 897q17 3 43 -28q17 -20 9 -22l-423 -88v-1q-9 -6 -17 -17.5t-17.5 -29t-11.5 -21.5q-44 -71 -94 -166q-69 -131 -113 -233l373 102q15 5 41 -25q19 -22 10 -24l-453 -125q-32 -82 -55 -166q-31 -99 -27 -202q11 -129 147 -90q92 27 181 87t183 145q7 6 23.5 -4
t28 -24t6.5 -19q-210 -189 -370 -235q-50 -12 -96 -6t-85 35t-60 76q-17 37 -21 81t6 95.5t19 84.5t26 85q16 49 36 101q-1 2 1 4q67 167 153 325q43 81 82 145l-33 -7q-17 -4 -43 28q-17 20 -9 22z" />
    <glyph glyph-name="E" unicode="&#xcb;" horiz-adv-x="700" 
d="M799 897q17 3 43 -28q17 -20 9 -22l-423 -88v-1q-9 -6 -17 -17.5t-17.5 -29t-11.5 -21.5q-44 -71 -94 -166q-69 -131 -113 -233l373 102q15 5 41 -25q19 -22 10 -24l-453 -125q-32 -82 -55 -166q-31 -99 -27 -202q11 -129 147 -90q92 27 181 87t183 145q7 6 23.5 -4
t28 -24t6.5 -19q-210 -189 -370 -235q-50 -12 -96 -6t-85 35t-60 76q-17 37 -21 81t6 95.5t19 84.5t26 85q16 49 36 101q-1 2 1 4q67 167 153 325q43 81 82 145l-33 -7q-17 -4 -43 28q-17 20 -9 22z" />
    <glyph glyph-name="E" unicode="&#xca;" horiz-adv-x="700" 
d="M799 897q17 3 43 -28q17 -20 9 -22l-423 -88v-1q-9 -6 -17 -17.5t-17.5 -29t-11.5 -21.5q-44 -71 -94 -166q-69 -131 -113 -233l373 102q15 5 41 -25q19 -22 10 -24l-453 -125q-32 -82 -55 -166q-31 -99 -27 -202q11 -129 147 -90q92 27 181 87t183 145q7 6 23.5 -4
t28 -24t6.5 -19q-210 -189 -370 -235q-50 -12 -96 -6t-85 35t-60 76q-17 37 -21 81t6 95.5t19 84.5t26 85q16 49 36 101q-1 2 1 4q67 167 153 325q43 81 82 145l-33 -7q-17 -4 -43 28q-17 20 -9 22z" />
    <glyph glyph-name="E" unicode="&#xc9;" horiz-adv-x="700" 
d="M799 897q17 3 43 -28q17 -20 9 -22l-423 -88v-1q-9 -6 -17 -17.5t-17.5 -29t-11.5 -21.5q-44 -71 -94 -166q-69 -131 -113 -233l373 102q15 5 41 -25q19 -22 10 -24l-453 -125q-32 -82 -55 -166q-31 -99 -27 -202q11 -129 147 -90q92 27 181 87t183 145q7 6 23.5 -4
t28 -24t6.5 -19q-210 -189 -370 -235q-50 -12 -96 -6t-85 35t-60 76q-17 37 -21 81t6 95.5t19 84.5t26 85q16 49 36 101q-1 2 1 4q67 167 153 325q43 81 82 145l-33 -7q-17 -4 -43 28q-17 20 -9 22z" />
    <glyph glyph-name="E" unicode="&#xc8;" horiz-adv-x="700" 
d="M799 897q17 3 43 -28q17 -20 9 -22l-423 -88v-1q-9 -6 -17 -17.5t-17.5 -29t-11.5 -21.5q-44 -71 -94 -166q-69 -131 -113 -233l373 102q15 5 41 -25q19 -22 10 -24l-453 -125q-32 -82 -55 -166q-31 -99 -27 -202q11 -129 147 -90q92 27 181 87t183 145q7 6 23.5 -4
t28 -24t6.5 -19q-210 -189 -370 -235q-50 -12 -96 -6t-85 35t-60 76q-17 37 -21 81t6 95.5t19 84.5t26 85q16 49 36 101q-1 2 1 4q67 167 153 325q43 81 82 145l-33 -7q-17 -4 -43 28q-17 20 -9 22z" />
    <glyph glyph-name="F" unicode="F" horiz-adv-x="564" 
d="M745 895q16 3 43 -29q16 -20 8 -21l-454 -95q-65 -183 -124 -369l290 58q16 3 43 -28q16 -20 9 -22l-363 -72q-70 -224 -172 -578q-1 -5 -16.5 2.5t-29.5 21t-12 22.5q90 311 154 517l-55 -11q-17 -3 -43 28q-15 19 -9 22l126 25q58 185 121 367l-59 -13q-16 -3 -43 28
q-16 20 -9 22l135 28q25 71 30 86q2 5 18 -3t29.5 -21.5t10.5 -22.5q-1 -4 -4 -11.5t-4 -10.5z" />
    <glyph glyph-name="G" unicode="G" horiz-adv-x="758" 
d="M529 881q31 -6 57 -22t45 -38t34.5 -51t25 -58.5t16.5 -62.5t10 -61.5t3 -57.5q1 -10 -29 8q-28 18 -30 32q-2 95 -33 184q-14 38 -35.5 57t-47 18t-51.5 -14.5t-52 -38.5q-138 -131 -257 -415q-21 -52 -37 -94.5t-32.5 -99.5t-24.5 -106t-7 -103.5t13 -100.5
q19 -67 75.5 -91.5t121.5 1.5q87 33 169 160q81 127 127 270q-79 -49 -235 -129q-8 -3 -23.5 7.5t-25.5 24.5t-3 18q74 38 117.5 61t105 61.5t108.5 75.5q10 8 35.5 -12t23.5 -32q-53 -260 -127 -596q-3 -13 -34 8q-28 19 -25 32q12 54 44 203q-59 -111 -163 -180
q-50 -31 -107 -32.5t-105 22t-85.5 67.5t-52.5 98q-13 49 -14.5 104t8.5 110.5t24 108.5t36.5 109.5t42.5 101t46 95.5q3 5 9 17q18 37 29.5 59t36.5 65.5t44.5 71t49 61t56 52t59 28.5t64.5 4z" />
    <glyph glyph-name="H" unicode="H" horiz-adv-x="860" 
d="M786 937q2 5 18 -2.5t29.5 -21t10.5 -22.5q-125 -338 -198 -576q76 3 143 0q10 -1 24 -13.5t23 -24.5t5 -12q-106 5 -212 -5q-83 -272 -134 -553q-2 -12 -32 8q-29 20 -27 32q46 256 120 506q-177 -24 -349 -73q-56 -161 -111 -322q-2 -4 -17.5 3.5t-29.5 21t-11 22.5
l86 250q-91 -29 -184 -63q-14 -5 -40 23q-21 23 -11 27q134 50 261 86q94 271 194 539q2 5 17.5 -2.5t29.5 -21t10 -22.5q-86 -235 -169 -471q168 43 340 60q78 258 214 627z" />
    <glyph glyph-name="I" unicode="I" horiz-adv-x="325" 
d="M356 924q2 5 18 -3t30 -21.5t10 -22.5q-94 -231 -176 -482q-64 -189 -106 -384q0 -2 -7.5 -37t-9.5 -47.5t-6 -44.5t-2.5 -50t6.5 -41t15 -38q9 -14 -2 -11q-21 5 -44 26l-5 5q-12 19 -18.5 45t-8.5 45t1.5 54t5.5 46t8 49q36 190 98 374q86 273 193 538z" />
    <glyph glyph-name="I" unicode="&#xcf;" horiz-adv-x="325" 
d="M356 924q2 5 18 -3t30 -21.5t10 -22.5q-94 -231 -176 -482q-64 -189 -106 -384q0 -2 -7.5 -37t-9.5 -47.5t-6 -44.5t-2.5 -50t6.5 -41t15 -38q9 -14 -2 -11q-21 5 -44 26l-5 5q-12 19 -18.5 45t-8.5 45t1.5 54t5.5 46t8 49q36 190 98 374q86 273 193 538z" />
    <glyph glyph-name="I" unicode="&#xce;" horiz-adv-x="325" 
d="M356 924q2 5 18 -3t30 -21.5t10 -22.5q-94 -231 -176 -482q-64 -189 -106 -384q0 -2 -7.5 -37t-9.5 -47.5t-6 -44.5t-2.5 -50t6.5 -41t15 -38q9 -14 -2 -11q-21 5 -44 26l-5 5q-12 19 -18.5 45t-8.5 45t1.5 54t5.5 46t8 49q36 190 98 374q86 273 193 538z" />
    <glyph glyph-name="I" unicode="&#xcd;" horiz-adv-x="325" 
d="M356 924q2 5 18 -3t30 -21.5t10 -22.5q-94 -231 -176 -482q-64 -189 -106 -384q0 -2 -7.5 -37t-9.5 -47.5t-6 -44.5t-2.5 -50t6.5 -41t15 -38q9 -14 -2 -11q-21 5 -44 26l-5 5q-12 19 -18.5 45t-8.5 45t1.5 54t5.5 46t8 49q36 190 98 374q86 273 193 538z" />
    <glyph glyph-name="I" unicode="&#xcc;" horiz-adv-x="325" 
d="M356 924q2 5 18 -3t30 -21.5t10 -22.5q-94 -231 -176 -482q-64 -189 -106 -384q0 -2 -7.5 -37t-9.5 -47.5t-6 -44.5t-2.5 -50t6.5 -41t15 -38q9 -14 -2 -11q-21 5 -44 26l-5 5q-12 19 -18.5 45t-8.5 45t1.5 54t5.5 46t8 49q36 190 98 374q86 273 193 538z" />
    <glyph glyph-name="J" unicode="J" horiz-adv-x="878" 
d="M975 756q13 -34 14 -72.5t-8.5 -78.5t-20.5 -72t-28 -70q-87 -196 -221 -362.5t-307 -293.5q-17 -12 -31 -21.5t-33.5 -21t-36 -19.5t-37 -15.5t-39 -11t-38.5 -3.5t-39 4q-58 14 -104 67t-44 111q2 44 25 87.5t61 79.5t75 63t79 51q217 124 355 63q15 -7 35 -34
q11 -14 4 -14q-3 0 -8 2q-33 15 -72.5 16.5t-76.5 -6.5t-77 -24t-71.5 -32.5t-63.5 -37.5q-207 -132 -205 -261q1 -144 182 -52q106 54 216 150q8 6 13 11q246 227 391 528q72 155 63 254q-12 132 -217 103q-31 -4 -73.5 -16.5t-90 -33t-92.5 -46.5t-79 -58.5t-52 -67.5
t-10.5 -76t45.5 -82q16 -17 4 -16q-18 2 -42 21q-2 2 -4 3q-86 95 -55 176.5t123 139.5t204 88t188 21q66 -9 121.5 -46t77.5 -95z" />
    <glyph glyph-name="K" unicode="K" horiz-adv-x="560" 
d="M716 806q-300 -198 -538 -468q-16 -64 -31 -128q17 -15 47 -37t35 -27q129 -105 314 -227q7 -5 -2.5 -21t-25.5 -26.5t-26 -4.5q-173 113 -334 245q-7 6 -26 21q-46 -206 -70 -390q-1 -12 -30 7q-31 19 -29 33q24 189 71 398q-44 42 -47 75q0 11 8 19q0 2 1 3
q40 51 88 106q62 236 162 540q2 5 17.5 -3t29.5 -21t11 -23q-70 -210 -120 -385q200 204 438 361q8 5 24 -5.5t27 -24.5t6 -17z" />
    <glyph glyph-name="L" unicode="L" horiz-adv-x="655" 
d="M580 -13q8 5 24 -5.5t26.5 -24.5t6.5 -17q-540 -328 -583 -108q-2 11 -3 24q-3 45 2.5 96.5t13 93.5t26 101t30 93.5t38.5 98.5t37.5 87.5t38.5 87.5q87 197 195 382q5 10 35 -13q28 -22 22 -34q-271 -460 -354 -840q-16 -70 -22 -142q-6 -30 -3 -61q2 -5 1 -9q5 -1 9 -3
q9 -4 22 -4t27.5 3.5t28.5 7.5t30.5 10.5t28.5 12t26 11.5t20 9q143 61 277 143z" />
    <glyph glyph-name="M" unicode="M" horiz-adv-x="1158" 
d="M1105 608q9 -31 11.5 -69t1 -68t-9.5 -77t-13.5 -70t-18 -74.5t-15.5 -64.5q-5 -21 -47 -177.5t-54 -240.5q-2 -12 -33 8q-29 19 -27 32q14 91 58 256t55 212q30 124 40 251q1 4 2 17t1 20.5t0.5 21.5t-0.5 22.5t-3 20t-6 18t-9 13t-13.5 9.5t-19.5 2q-23 -2 -46 -15
t-46.5 -38.5t-35 -39.5t-32.5 -42q-74 -102 -130 -216q-81 -157 -143 -323q-2 -5 -18 3t-29.5 21.5t-10.5 22.5q64 192 107 390q30 123 40 249q5 54 -1 108q-3 18 -4.5 26.5t-6.5 16.5t-12 10q-50 12 -141 -91q-78 -94 -134 -203q-174 -318 -321 -785q-2 -5 -17.5 2.5
t-29.5 20t-12 20.5l292 1090q4 13 35 -8q27 -20 25 -32l-117 -436q33 71 65.5 133t75 131.5t84 115.5t85 74.5t85.5 18t78 -61.5q21 -29 30.5 -69.5t10 -78t-7 -89t-14.5 -84.5t-19 -83q20 39 35.5 66.5t40.5 65t47.5 63.5t52.5 50.5t61 37.5q30 12 58.5 8.5t52 -18.5
t41.5 -39.5t26 -53.5z" />
    <glyph glyph-name="N" unicode="N" horiz-adv-x="1004" 
d="M1033 877q3 -144 -30 -296.5t-94 -344.5q-47 -162 -127 -310l-15 -25.5t-16 -25t-20.5 -26.5t-22 -21t-26.5 -16t-29 -5q-144 0 -141 300q0 49 5.5 119.5t9.5 128t5.5 122t-7 126.5t-27.5 117q-5 10 -12 18q-10 0 -19 -6q-25 -19 -45 -43q-59 -80 -96 -172
q-103 -241 -180 -492q-10 -30 -32.5 -101t-34.5 -109q-2 -4 -9 -33.5t-15 -51.5t-18 -28q-14 -10 -35 3t-28 32q-3 7 -3.5 17t0.5 20t4 21.5t5.5 20.5t6 19.5l5.5 16.5q13 53 29 110.5t30 105t34 111t33 104t36.5 110t34.5 103t37 110t36 104.5q1 5 15.5 -1.5t28 -19
t14.5 -21.5q12 23 21.5 38.5t24.5 35.5t32.5 32t35.5 14q28 4 55 -15.5t44 -44.5t27 -52q14 -36 21.5 -75t8 -88.5t0 -77.5t-4.5 -90t-5 -77q-10 -178 -9 -238v-26.5t0.5 -41t3 -39.5t8 -39t14.5 -21q54 -39 145 141q14 28 30 65q96 226 148 466q18 79 28 129t18.5 121.5
t7.5 131.5q-1 10 29 -8t30 -32z" />
    <glyph glyph-name="N" unicode="&#xd1;" horiz-adv-x="1004" 
d="M1033 877q3 -144 -30 -296.5t-94 -344.5q-47 -162 -127 -310l-15 -25.5t-16 -25t-20.5 -26.5t-22 -21t-26.5 -16t-29 -5q-144 0 -141 300q0 49 5.5 119.5t9.5 128t5.5 122t-7 126.5t-27.5 117q-5 10 -12 18q-10 0 -19 -6q-25 -19 -45 -43q-59 -80 -96 -172
q-103 -241 -180 -492q-10 -30 -32.5 -101t-34.5 -109q-2 -4 -9 -33.5t-15 -51.5t-18 -28q-14 -10 -35 3t-28 32q-3 7 -3.5 17t0.5 20t4 21.5t5.5 20.5t6 19.5l5.5 16.5q13 53 29 110.5t30 105t34 111t33 104t36.5 110t34.5 103t37 110t36 104.5q1 5 15.5 -1.5t28 -19
t14.5 -21.5q12 23 21.5 38.5t24.5 35.5t32.5 32t35.5 14q28 4 55 -15.5t44 -44.5t27 -52q14 -36 21.5 -75t8 -88.5t0 -77.5t-4.5 -90t-5 -77q-10 -178 -9 -238v-26.5t0.5 -41t3 -39.5t8 -39t14.5 -21q54 -39 145 141q14 28 30 65q96 226 148 466q18 79 28 129t18.5 121.5
t7.5 131.5q-1 10 29 -8t30 -32z" />
    <glyph glyph-name="O" unicode="O" horiz-adv-x="752" 
d="M554 924q44 -15 75.5 -49.5t47 -77t24.5 -92.5t7.5 -96t-2.5 -87q-6 -89 -25.5 -171.5t-53.5 -162t-88 -148t-125 -117.5q-41 -29 -86 -47t-92 -24t-92.5 10.5t-79.5 56.5q-24 28 -37.5 66.5t-17 74.5t3 84.5t14 84t24.5 87t27 78.5t29 73q2 7 3.5 11t4 9.5t3.5 9.5
q81 198 236 345q15 14 27.5 24.5t30 24t33.5 21t34 13.5t37 6t38 -7zM649 618q1 19 0 45.5t-2.5 55.5t-8.5 57.5t-17.5 51t-29.5 37t-45 15.5q-24 1 -52 -13.5t-58 -43t-47 -47t-41 -48.5q-5 -5 -7 -8q-103 -122 -165 -269q-12 -30 -20.5 -54.5t-26.5 -78t-28 -96t-20.5 -97
t-7.5 -93.5t14 -73t40.5 -48.5t74.5 -7.5q64 10 125 45t109 86t85 108.5t61 118.5q66 172 67 357z" />
    <glyph glyph-name="O" unicode="&#xd8;" horiz-adv-x="752" 
d="M554 924q44 -15 75.5 -49.5t47 -77t24.5 -92.5t7.5 -96t-2.5 -87q-6 -89 -25.5 -171.5t-53.5 -162t-88 -148t-125 -117.5q-41 -29 -86 -47t-92 -24t-92.5 10.5t-79.5 56.5q-24 28 -37.5 66.5t-17 74.5t3 84.5t14 84t24.5 87t27 78.5t29 73q2 7 3.5 11t4 9.5t3.5 9.5
q81 198 236 345q15 14 27.5 24.5t30 24t33.5 21t34 13.5t37 6t38 -7zM649 618q1 19 0 45.5t-2.5 55.5t-8.5 57.5t-17.5 51t-29.5 37t-45 15.5q-24 1 -52 -13.5t-58 -43t-47 -47t-41 -48.5q-5 -5 -7 -8q-103 -122 -165 -269q-12 -30 -20.5 -54.5t-26.5 -78t-28 -96t-20.5 -97
t-7.5 -93.5t14 -73t40.5 -48.5t74.5 -7.5q64 10 125 45t109 86t85 108.5t61 118.5q66 172 67 357z" />
    <glyph glyph-name="O" unicode="&#xd6;" horiz-adv-x="752" 
d="M554 924q44 -15 75.5 -49.5t47 -77t24.5 -92.5t7.5 -96t-2.5 -87q-6 -89 -25.5 -171.5t-53.5 -162t-88 -148t-125 -117.5q-41 -29 -86 -47t-92 -24t-92.5 10.5t-79.5 56.5q-24 28 -37.5 66.5t-17 74.5t3 84.5t14 84t24.5 87t27 78.5t29 73q2 7 3.5 11t4 9.5t3.5 9.5
q81 198 236 345q15 14 27.5 24.5t30 24t33.5 21t34 13.5t37 6t38 -7zM649 618q1 19 0 45.5t-2.5 55.5t-8.5 57.5t-17.5 51t-29.5 37t-45 15.5q-24 1 -52 -13.5t-58 -43t-47 -47t-41 -48.5q-5 -5 -7 -8q-103 -122 -165 -269q-12 -30 -20.5 -54.5t-26.5 -78t-28 -96t-20.5 -97
t-7.5 -93.5t14 -73t40.5 -48.5t74.5 -7.5q64 10 125 45t109 86t85 108.5t61 118.5q66 172 67 357z" />
    <glyph glyph-name="O" unicode="&#xd5;" horiz-adv-x="752" 
d="M554 924q44 -15 75.5 -49.5t47 -77t24.5 -92.5t7.5 -96t-2.5 -87q-6 -89 -25.5 -171.5t-53.5 -162t-88 -148t-125 -117.5q-41 -29 -86 -47t-92 -24t-92.5 10.5t-79.5 56.5q-24 28 -37.5 66.5t-17 74.5t3 84.5t14 84t24.5 87t27 78.5t29 73q2 7 3.5 11t4 9.5t3.5 9.5
q81 198 236 345q15 14 27.5 24.5t30 24t33.5 21t34 13.5t37 6t38 -7zM649 618q1 19 0 45.5t-2.5 55.5t-8.5 57.5t-17.5 51t-29.5 37t-45 15.5q-24 1 -52 -13.5t-58 -43t-47 -47t-41 -48.5q-5 -5 -7 -8q-103 -122 -165 -269q-12 -30 -20.5 -54.5t-26.5 -78t-28 -96t-20.5 -97
t-7.5 -93.5t14 -73t40.5 -48.5t74.5 -7.5q64 10 125 45t109 86t85 108.5t61 118.5q66 172 67 357z" />
    <glyph glyph-name="O" unicode="&#xd4;" horiz-adv-x="752" 
d="M554 924q44 -15 75.5 -49.5t47 -77t24.5 -92.5t7.5 -96t-2.5 -87q-6 -89 -25.5 -171.5t-53.5 -162t-88 -148t-125 -117.5q-41 -29 -86 -47t-92 -24t-92.5 10.5t-79.5 56.5q-24 28 -37.5 66.5t-17 74.5t3 84.5t14 84t24.5 87t27 78.5t29 73q2 7 3.5 11t4 9.5t3.5 9.5
q81 198 236 345q15 14 27.5 24.5t30 24t33.5 21t34 13.5t37 6t38 -7zM649 618q1 19 0 45.5t-2.5 55.5t-8.5 57.5t-17.5 51t-29.5 37t-45 15.5q-24 1 -52 -13.5t-58 -43t-47 -47t-41 -48.5q-5 -5 -7 -8q-103 -122 -165 -269q-12 -30 -20.5 -54.5t-26.5 -78t-28 -96t-20.5 -97
t-7.5 -93.5t14 -73t40.5 -48.5t74.5 -7.5q64 10 125 45t109 86t85 108.5t61 118.5q66 172 67 357z" />
    <glyph glyph-name="O" unicode="&#xd3;" horiz-adv-x="752" 
d="M554 924q44 -15 75.5 -49.5t47 -77t24.5 -92.5t7.5 -96t-2.5 -87q-6 -89 -25.5 -171.5t-53.5 -162t-88 -148t-125 -117.5q-41 -29 -86 -47t-92 -24t-92.5 10.5t-79.5 56.5q-24 28 -37.5 66.5t-17 74.5t3 84.5t14 84t24.5 87t27 78.5t29 73q2 7 3.5 11t4 9.5t3.5 9.5
q81 198 236 345q15 14 27.5 24.5t30 24t33.5 21t34 13.5t37 6t38 -7zM649 618q1 19 0 45.5t-2.5 55.5t-8.5 57.5t-17.5 51t-29.5 37t-45 15.5q-24 1 -52 -13.5t-58 -43t-47 -47t-41 -48.5q-5 -5 -7 -8q-103 -122 -165 -269q-12 -30 -20.5 -54.5t-26.5 -78t-28 -96t-20.5 -97
t-7.5 -93.5t14 -73t40.5 -48.5t74.5 -7.5q64 10 125 45t109 86t85 108.5t61 118.5q66 172 67 357z" />
    <glyph glyph-name="O" unicode="&#xd2;" horiz-adv-x="752" 
d="M554 924q44 -15 75.5 -49.5t47 -77t24.5 -92.5t7.5 -96t-2.5 -87q-6 -89 -25.5 -171.5t-53.5 -162t-88 -148t-125 -117.5q-41 -29 -86 -47t-92 -24t-92.5 10.5t-79.5 56.5q-24 28 -37.5 66.5t-17 74.5t3 84.5t14 84t24.5 87t27 78.5t29 73q2 7 3.5 11t4 9.5t3.5 9.5
q81 198 236 345q15 14 27.5 24.5t30 24t33.5 21t34 13.5t37 6t38 -7zM649 618q1 19 0 45.5t-2.5 55.5t-8.5 57.5t-17.5 51t-29.5 37t-45 15.5q-24 1 -52 -13.5t-58 -43t-47 -47t-41 -48.5q-5 -5 -7 -8q-103 -122 -165 -269q-12 -30 -20.5 -54.5t-26.5 -78t-28 -96t-20.5 -97
t-7.5 -93.5t14 -73t40.5 -48.5t74.5 -7.5q64 10 125 45t109 86t85 108.5t61 118.5q66 172 67 357z" />
    <glyph glyph-name="P" unicode="P" horiz-adv-x="613" 
d="M913 925q33 -60 30 -127.5t-33 -130.5t-77 -107q-96 -90 -240 -133.5t-304 -50.5q-104 -243 -181 -496q-1 -5 -17 2.5t-29.5 21t-11.5 22.5q71 233 165 457q-24 18 -32 37q-1 3 0 4q22 0 50 1q78 183 177 384q2 5 18.5 -3t29.5 -22t9 -22q-86 -175 -154 -332
q100 10 188 33t173.5 70t138.5 114q76 97 68 220q-11 147 -202 114q-88 -15 -179.5 -53t-169.5 -87.5t-151 -110.5q-7 -6 -23 4t-27.5 24t-7.5 18q115 97 249 166.5t266 90.5q86 13 161.5 -12.5t115.5 -95.5z" />
    <glyph glyph-name="Q" unicode="Q" horiz-adv-x="775" 
d="M561 43q70 -125 188 -207q8 -5 -1.5 -20.5t-26 -26.5t-25.5 -5q-113 78 -182 197q-27 -34 -43 -53t-45 -48t-57.5 -44.5t-58.5 -18.5q-83 -10 -151 27.5t-104 105.5t-34 148q1 57 13.5 126t23.5 113t34 122q46 182 177 316q32 32 69 58.5t81.5 46.5t88 28.5t89.5 1.5
t86 -31q33 -21 57 -47.5t36 -59t18 -64.5t3.5 -71.5t-7 -71.5t-15.5 -74t-19.5 -69t-21.5 -65q-65 -169 -173 -314zM422 359q43 -129 103 -251q93 139 151 296q16 47 24.5 72.5t20.5 74t16 82t2.5 75.5t-12.5 77q-9 29 -28.5 47.5t-43 25t-52.5 5.5t-54.5 -7t-50.5 -15
q-65 -24 -119.5 -66t-93 -91.5t-70.5 -113.5t-52.5 -123t-37.5 -128.5t-24.5 -102.5t-15 -92t-4.5 -105q4 -61 29 -96t81 -51q34 -11 69 -5t63 27q89 63 155 150q-67 131 -113 271q-5 15 22 38q28 21 35 6z" />
    <glyph glyph-name="R" unicode="R" horiz-adv-x="738" 
d="M890 899q29 -66 18.5 -134.5t-46 -128t-89.5 -102.5q-166 -132 -458 -172q183 -297 412 -471q11 -9 -12 -34q-27 -27 -41 -18q-241 183 -429 500q-97 -229 -169 -466q-1 -5 -17 2.5t-29.5 21t-11.5 22.5q61 204 154 431q-20 -1 -28 -1q-18 -1 -44 32q-11 16 -8 17
q50 2 103 6q4 9 6 13q-22 40 -39 74q-8 18 22 42q26 21 31 10l22 -42q64 146 141 301q2 5 18.5 -3t29.5 -22t9 -22q-86 -176 -155 -333q1 -1 2.5 -3.5t1.5 -3.5q328 47 478 209q87 91 87 216q0 162 -184 137q-133 -17 -267.5 -86.5t-250.5 -167.5q-7 -6 -23 4t-27.5 24
t-7.5 18q117 99 253.5 169.5t270.5 88.5q57 8 110 -1.5t99 -42t68 -84.5z" />
    <glyph glyph-name="S" unicode="S" horiz-adv-x="710" 
d="M588 913q41 -1 64 -24t27.5 -54.5t-1.5 -73t-15.5 -73t-21.5 -62.5q-7 -15 -34 -30q-24 -12 -22 3q1 3 3 7q72 180 11 234q-20 18 -50 20t-61 -10t-56.5 -26.5t-45.5 -30.5q-120 -95 -77 -234q9 -29 24.5 -59t29 -51t39.5 -52.5t38.5 -45t42.5 -46.5q4 -5 30 -32.5
t36 -39t28 -35t27 -44.5t14 -43q7 -35 -3.5 -71.5t-35 -69t-54 -62t-67 -56t-68 -45.5t-60.5 -35q-32 -16 -74.5 -30t-90.5 -19.5t-85.5 2.5t-58 41.5t-10.5 91.5q9 46 31.5 95t61 100t64.5 82t72 81q17 18 37 19q19 0 3 -21l-5 -6q-14 -15 -26.5 -30t-34 -40t-38.5 -49
t-37.5 -54t-34 -56.5t-25 -54.5t-12.5 -52t5 -44.5t25.5 -35t50.5 -20.5q38 -9 82.5 0t86.5 31.5t76.5 45.5t67.5 51q35 29 56.5 54.5t33 55.5t5 63t-31.5 69q-24 36 -67 83.5t-79 86.5t-70.5 85.5t-53.5 99t-16 108.5q3 73 59 146.5t137 119t154 42.5z" />
    <glyph glyph-name="T" unicode="T" horiz-adv-x="413" 
d="M916 952q18 2 44 -32q13 -17 7 -18q-243 -19 -480 -79q3 -6 1 -12q-100 -208 -190 -436q-72 -176 -119 -360q-1 -3 -6.5 -25t-7 -30.5t-6 -30t-5.5 -33.5t-2 -31t1 -32t6.5 -27.5t11.5 -25.5q9 -14 -3 -11q-21 5 -43 26q-4 3 -5 5q-15 23 -21.5 50.5t-3.5 61.5t6.5 55
t10.5 57q41 176 108 343q81 216 184 434q-185 -50 -418 -131q-15 -5 -42 25q-17 20 -9 25q175 61 322 104.5t324 80t335 47.5z" />
    <glyph glyph-name="U" unicode="U" horiz-adv-x="721" 
d="M655 737q2 12 31 -7q29 -20 29 -33q-27 -195 -83 -382q-12 -41 -19.5 -64.5t-22.5 -66.5t-27 -70.5t-32 -64.5t-39.5 -62t-46 -50t-56.5 -40q-58 -30 -118.5 -17.5t-111.5 52.5t-80 93q-24 46 -34 103t-8 107.5t14.5 115.5t24.5 107.5t31 102.5q59 189 147 365
q3 6 19 -2.5t29.5 -22.5t9.5 -22q-84 -168 -142 -347q-19 -57 -30.5 -97.5t-25 -102t-17 -109.5t2.5 -103t24 -100q21 -50 54 -73.5t69 -21t73.5 20.5t69 46.5t53.5 62.5q47 69 83 153.5t60.5 176.5t40 174t28.5 178z" />
    <glyph glyph-name="U" unicode="&#xdc;" horiz-adv-x="721" 
d="M655 737q2 12 31 -7q29 -20 29 -33q-27 -195 -83 -382q-12 -41 -19.5 -64.5t-22.5 -66.5t-27 -70.5t-32 -64.5t-39.5 -62t-46 -50t-56.5 -40q-58 -30 -118.5 -17.5t-111.5 52.5t-80 93q-24 46 -34 103t-8 107.5t14.5 115.5t24.5 107.5t31 102.5q59 189 147 365
q3 6 19 -2.5t29.5 -22.5t9.5 -22q-84 -168 -142 -347q-19 -57 -30.5 -97.5t-25 -102t-17 -109.5t2.5 -103t24 -100q21 -50 54 -73.5t69 -21t73.5 20.5t69 46.5t53.5 62.5q47 69 83 153.5t60.5 176.5t40 174t28.5 178z" />
    <glyph glyph-name="U" unicode="&#xdb;" horiz-adv-x="721" 
d="M655 737q2 12 31 -7q29 -20 29 -33q-27 -195 -83 -382q-12 -41 -19.5 -64.5t-22.5 -66.5t-27 -70.5t-32 -64.5t-39.5 -62t-46 -50t-56.5 -40q-58 -30 -118.5 -17.5t-111.5 52.5t-80 93q-24 46 -34 103t-8 107.5t14.5 115.5t24.5 107.5t31 102.5q59 189 147 365
q3 6 19 -2.5t29.5 -22.5t9.5 -22q-84 -168 -142 -347q-19 -57 -30.5 -97.5t-25 -102t-17 -109.5t2.5 -103t24 -100q21 -50 54 -73.5t69 -21t73.5 20.5t69 46.5t53.5 62.5q47 69 83 153.5t60.5 176.5t40 174t28.5 178z" />
    <glyph glyph-name="U" unicode="&#xda;" horiz-adv-x="721" 
d="M655 737q2 12 31 -7q29 -20 29 -33q-27 -195 -83 -382q-12 -41 -19.5 -64.5t-22.5 -66.5t-27 -70.5t-32 -64.5t-39.5 -62t-46 -50t-56.5 -40q-58 -30 -118.5 -17.5t-111.5 52.5t-80 93q-24 46 -34 103t-8 107.5t14.5 115.5t24.5 107.5t31 102.5q59 189 147 365
q3 6 19 -2.5t29.5 -22.5t9.5 -22q-84 -168 -142 -347q-19 -57 -30.5 -97.5t-25 -102t-17 -109.5t2.5 -103t24 -100q21 -50 54 -73.5t69 -21t73.5 20.5t69 46.5t53.5 62.5q47 69 83 153.5t60.5 176.5t40 174t28.5 178z" />
    <glyph glyph-name="U" unicode="&#xd9;" horiz-adv-x="721" 
d="M655 737q2 12 31 -7q29 -20 29 -33q-27 -195 -83 -382q-12 -41 -19.5 -64.5t-22.5 -66.5t-27 -70.5t-32 -64.5t-39.5 -62t-46 -50t-56.5 -40q-58 -30 -118.5 -17.5t-111.5 52.5t-80 93q-24 46 -34 103t-8 107.5t14.5 115.5t24.5 107.5t31 102.5q59 189 147 365
q3 6 19 -2.5t29.5 -22.5t9.5 -22q-84 -168 -142 -347q-19 -57 -30.5 -97.5t-25 -102t-17 -109.5t2.5 -103t24 -100q21 -50 54 -73.5t69 -21t73.5 20.5t69 46.5t53.5 62.5q47 69 83 153.5t60.5 176.5t40 174t28.5 178z" />
    <glyph glyph-name="V" unicode="V" horiz-adv-x="624" 
d="M751 936q2 5 18.5 -3t29.5 -22t9 -22q-45 -93 -127.5 -274.5t-153.5 -325t-144 -265.5q-2 -4 -8 -14q-14 -24 -23.5 -39t-29 -44t-35 -46.5t-37.5 -37.5t-41.5 -27.5t-42 -6.5t-43.5 16q-18 13 -30.5 34t-19.5 39.5t-11 50t-5 47t-2 50.5t-1 43q-13 296 24 776
q0 11 30 -8t29 -32q-12 -157 -16.5 -225t-10.5 -198.5t-3.5 -235.5t12.5 -206q1 -15 6 -44t6 -43q2 -7 5 -13q7 2 15 5q112 97 186 226q55 94 113 209t100.5 207t101 218.5t99.5 210.5z" />
    <glyph glyph-name="W" unicode="W" horiz-adv-x="1377" 
d="M1130 1005q200 -393 128 -739q-14 -70 -48 -147.5t-85 -153.5t-116 -129.5t-142.5 -76t-162.5 6.5q-58 19 -101.5 54.5t-69 83t-41 99.5t-19 114t-1.5 118t9 119q-17 -33 -29 -53q-22 -39 -39.5 -68t-45.5 -67.5t-54.5 -65.5t-61 -51.5t-70.5 -35.5q-36 -13 -74 -5
t-66 34q-23 20 -32 48t-8 52.5t7 59.5q28 149 140 374q9 18 44 37q30 16 29 1q-1 -5 -4 -12q-71 -138 -117 -287q-6 -20 -10 -41.5t-6 -48t0 -50t9.5 -45t22 -34.5t37 -19t55.5 3q18 5 37 16.5t34 24.5t32.5 36t28 37.5t26.5 44t22.5 41t21.5 41.5t17 35q47 93 85 192
q5 14 37 36q36 25 34 2v-3q-3 -21 -11 -65t-12.5 -70.5t-10.5 -68.5t-8 -73t-2.5 -68t4 -70.5t13.5 -64.5q16 -57 43 -107t65.5 -92.5t92.5 -63t114 -11.5q49 8 93.5 34t77.5 62t60.5 82.5t45.5 92.5t30 94q22 92 24 190t-16 192.5t-49 184t-76 177.5q-7 13 8.5 33.5
t35.5 31.5t25 2z" />
    <glyph glyph-name="X" unicode="X" horiz-adv-x="850" 
d="M943 885q-259 -199 -477 -443q140 -343 354 -646q10 -15 -19 -40q-26 -22 -35 -12q-211 300 -351 638q-112 -135 -201 -286q-57 -97 -94 -178.5t-50 -162.5q-2 -10 -26 7q-20 14 -19 23q13 79 48.5 158t88.5 173q100 173 230 325q-83 217 -113 448q-3 18 29 40
q26 18 28 4q29 -223 108 -433q210 230 456 420q6 5 18 -3t20.5 -18.5t4.5 -13.5z" />
    <glyph glyph-name="Y" unicode="Y" horiz-adv-x="546" 
d="M596 940q1 5 16.5 -2.5t29.5 -20.5t12 -20q-32 -133 -82 -306q-71 -253 -167 -498q-5 -12 -16 -39.5t-18 -45.5t-19.5 -46.5t-22.5 -48t-25 -44t-29.5 -41.5t-32.5 -33t-36 -26q-34 -18 -68.5 -11.5t-62.5 26t-45 52t-15 66.5q4 64 35 135t78 134t97.5 116.5t103.5 96.5
q7 6 23.5 -4.5t27.5 -24.5t7 -18q-138 -114 -229 -268q-7 -12 -13 -22t-17.5 -30.5t-19.5 -38.5l-18 -40.5t-14.5 -41.5t-6 -36.5t4 -31t17.5 -19.5q34 -19 71.5 7t72 86.5t52.5 97.5t38 86q4 10 5 13q99 236 170 481q-124 -177 -262 -161q-67 7 -107 45.5t-51.5 90
t-6.5 116t20 119t35 104.5q2 5 18 -3t29.5 -21.5t10.5 -22.5q-44 -103 -56 -214q-12 -119 26 -152q12 -11 29.5 -14.5t34.5 -1t35.5 9t33.5 14.5t27 17q160 108 280 434z" />
    <glyph glyph-name="Y" unicode="&#xdd;" horiz-adv-x="546" 
d="M596 940q1 5 16.5 -2.5t29.5 -20.5t12 -20q-32 -133 -82 -306q-71 -253 -167 -498q-5 -12 -16 -39.5t-18 -45.5t-19.5 -46.5t-22.5 -48t-25 -44t-29.5 -41.5t-32.5 -33t-36 -26q-34 -18 -68.5 -11.5t-62.5 26t-45 52t-15 66.5q4 64 35 135t78 134t97.5 116.5t103.5 96.5
q7 6 23.5 -4.5t27.5 -24.5t7 -18q-138 -114 -229 -268q-7 -12 -13 -22t-17.5 -30.5t-19.5 -38.5l-18 -40.5t-14.5 -41.5t-6 -36.5t4 -31t17.5 -19.5q34 -19 71.5 7t72 86.5t52.5 97.5t38 86q4 10 5 13q99 236 170 481q-124 -177 -262 -161q-67 7 -107 45.5t-51.5 90
t-6.5 116t20 119t35 104.5q2 5 18 -3t29.5 -21.5t10.5 -22.5q-44 -103 -56 -214q-12 -119 26 -152q12 -11 29.5 -14.5t34.5 -1t35.5 9t33.5 14.5t27 17q160 108 280 434z" />
    <glyph glyph-name="Z" unicode="Z" horiz-adv-x="701" 
d="M595 494q41 -36 56.5 -87.5t9 -103.5t-27.5 -108t-47 -101.5t-55 -83.5q-14 -18 -29 -36.5t-35 -40.5t-40.5 -41.5t-45 -39.5t-48 -36t-50 -28t-51 -18t-51 -5t-49.5 10q-53 22 -81 57.5t-29 76t16 83.5t51 81q113 128 326 248q9 5 24.5 -5.5t26.5 -24.5t7 -16
q-168 -91 -304 -225q-21 -21 -35.5 -38t-32.5 -43.5t-25 -52.5t-1 -50q7 -26 23 -39t37.5 -12t44 7t47.5 19t42 23.5t32 22.5q59 41 112 95.5t97 119t68.5 138.5t19.5 144q-1 22 -2 30.5t-4.5 25t-9.5 22.5t-17.5 11t-28.5 3q-59 -9 -114 -33q-97 -39 -186 -93
q-8 -4 -24.5 5.5t-27.5 23t-6 18.5q55 50 92 86t84.5 86t84.5 100.5t65 101.5q45 85 24 101q-6 4 -16 4.5t-23.5 -2.5t-27 -7.5t-28.5 -11t-26.5 -11.5t-23 -10.5t-15.5 -6.5q-127 -57 -247 -129q-8 -5 -24 6t-27 24.5t-6 16.5q7 4 26 16q34 21 56 33.5t66.5 38t77 39
t76.5 30t76.5 19t64 -1.5t52.5 -25.5t31 -58.5q10 -39 -15.5 -93.5t-51.5 -87t-71 -81.5q-14 -16 -21 -23q-12 -15 -36 -40q132 45 200 -16z" />
    <glyph glyph-name="a" unicode="a" horiz-adv-x="596" 
d="M214 307zM615 305q17 18 19 5q0 -10 -6 -20q-5 -8 -16 -25q-31 -49 -52.5 -79t-61 -74.5t-79.5 -61t-79 -3.5q-89 30 -91 134q-26 -31 -50 -56.5t-52 -49.5t-53 -36.5t-48.5 -15t-43.5 12.5t-34 48q-12 26 -5 60t22 66t39.5 65.5t46 58t41.5 43.5q15 13 28 19t22.5 7
t20 -5.5t17 -13t15.5 -21.5t13.5 -24t13.5 -28q5 -10 7 -16q26 35 47 72q6 11 35 -13q28 -22 23 -34q-34 -65 -43 -138q-4 -38 11 -73q11 -20 26 -18q33 6 64.5 21.5t61.5 42.5t49.5 47.5t50 55.5t41.5 47zM22 78q7 -6 43 22.5t85.5 79t88.5 102.5q-7 13 -29.5 36.5
t-28.5 22.5t-30 -29t-43 -55q-44 -56 -71 -121q-1 -3 -5 -11.5t-6 -13.5t-4.5 -13.5t-2 -12t2.5 -7.5z" />
    <glyph glyph-name="a" unicode="&#xe5;" horiz-adv-x="596" 
d="M214 307zM615 305q17 18 19 5q0 -10 -6 -20q-5 -8 -16 -25q-31 -49 -52.5 -79t-61 -74.5t-79.5 -61t-79 -3.5q-89 30 -91 134q-26 -31 -50 -56.5t-52 -49.5t-53 -36.5t-48.5 -15t-43.5 12.5t-34 48q-12 26 -5 60t22 66t39.5 65.5t46 58t41.5 43.5q15 13 28 19t22.5 7
t20 -5.5t17 -13t15.5 -21.5t13.5 -24t13.5 -28q5 -10 7 -16q26 35 47 72q6 11 35 -13q28 -22 23 -34q-34 -65 -43 -138q-4 -38 11 -73q11 -20 26 -18q33 6 64.5 21.5t61.5 42.5t49.5 47.5t50 55.5t41.5 47zM22 78q7 -6 43 22.5t85.5 79t88.5 102.5q-7 13 -29.5 36.5
t-28.5 22.5t-30 -29t-43 -55q-44 -56 -71 -121q-1 -3 -5 -11.5t-6 -13.5t-4.5 -13.5t-2 -12t2.5 -7.5z" />
    <glyph glyph-name="a" unicode="&#xe4;" horiz-adv-x="596" 
d="M214 307zM615 305q17 18 19 5q0 -10 -6 -20q-5 -8 -16 -25q-31 -49 -52.5 -79t-61 -74.5t-79.5 -61t-79 -3.5q-89 30 -91 134q-26 -31 -50 -56.5t-52 -49.5t-53 -36.5t-48.5 -15t-43.5 12.5t-34 48q-12 26 -5 60t22 66t39.5 65.5t46 58t41.5 43.5q15 13 28 19t22.5 7
t20 -5.5t17 -13t15.5 -21.5t13.5 -24t13.5 -28q5 -10 7 -16q26 35 47 72q6 11 35 -13q28 -22 23 -34q-34 -65 -43 -138q-4 -38 11 -73q11 -20 26 -18q33 6 64.5 21.5t61.5 42.5t49.5 47.5t50 55.5t41.5 47zM22 78q7 -6 43 22.5t85.5 79t88.5 102.5q-7 13 -29.5 36.5
t-28.5 22.5t-30 -29t-43 -55q-44 -56 -71 -121q-1 -3 -5 -11.5t-6 -13.5t-4.5 -13.5t-2 -12t2.5 -7.5z" />
    <glyph glyph-name="a" unicode="&#xe3;" horiz-adv-x="596" 
d="M214 307zM615 305q17 18 19 5q0 -10 -6 -20q-5 -8 -16 -25q-31 -49 -52.5 -79t-61 -74.5t-79.5 -61t-79 -3.5q-89 30 -91 134q-26 -31 -50 -56.5t-52 -49.5t-53 -36.5t-48.5 -15t-43.5 12.5t-34 48q-12 26 -5 60t22 66t39.5 65.5t46 58t41.5 43.5q15 13 28 19t22.5 7
t20 -5.5t17 -13t15.5 -21.5t13.5 -24t13.5 -28q5 -10 7 -16q26 35 47 72q6 11 35 -13q28 -22 23 -34q-34 -65 -43 -138q-4 -38 11 -73q11 -20 26 -18q33 6 64.5 21.5t61.5 42.5t49.5 47.5t50 55.5t41.5 47zM22 78q7 -6 43 22.5t85.5 79t88.5 102.5q-7 13 -29.5 36.5
t-28.5 22.5t-30 -29t-43 -55q-44 -56 -71 -121q-1 -3 -5 -11.5t-6 -13.5t-4.5 -13.5t-2 -12t2.5 -7.5z" />
    <glyph glyph-name="a" unicode="&#xe2;" horiz-adv-x="596" 
d="M214 307zM615 305q17 18 19 5q0 -10 -6 -20q-5 -8 -16 -25q-31 -49 -52.5 -79t-61 -74.5t-79.5 -61t-79 -3.5q-89 30 -91 134q-26 -31 -50 -56.5t-52 -49.5t-53 -36.5t-48.5 -15t-43.5 12.5t-34 48q-12 26 -5 60t22 66t39.5 65.5t46 58t41.5 43.5q15 13 28 19t22.5 7
t20 -5.5t17 -13t15.5 -21.5t13.5 -24t13.5 -28q5 -10 7 -16q26 35 47 72q6 11 35 -13q28 -22 23 -34q-34 -65 -43 -138q-4 -38 11 -73q11 -20 26 -18q33 6 64.5 21.5t61.5 42.5t49.5 47.5t50 55.5t41.5 47zM22 78q7 -6 43 22.5t85.5 79t88.5 102.5q-7 13 -29.5 36.5
t-28.5 22.5t-30 -29t-43 -55q-44 -56 -71 -121q-1 -3 -5 -11.5t-6 -13.5t-4.5 -13.5t-2 -12t2.5 -7.5z" />
    <glyph glyph-name="a" unicode="&#xe1;" horiz-adv-x="596" 
d="M214 307zM615 305q17 18 19 5q0 -10 -6 -20q-5 -8 -16 -25q-31 -49 -52.5 -79t-61 -74.5t-79.5 -61t-79 -3.5q-89 30 -91 134q-26 -31 -50 -56.5t-52 -49.5t-53 -36.5t-48.5 -15t-43.5 12.5t-34 48q-12 26 -5 60t22 66t39.5 65.5t46 58t41.5 43.5q15 13 28 19t22.5 7
t20 -5.5t17 -13t15.5 -21.5t13.5 -24t13.5 -28q5 -10 7 -16q26 35 47 72q6 11 35 -13q28 -22 23 -34q-34 -65 -43 -138q-4 -38 11 -73q11 -20 26 -18q33 6 64.5 21.5t61.5 42.5t49.5 47.5t50 55.5t41.5 47zM22 78q7 -6 43 22.5t85.5 79t88.5 102.5q-7 13 -29.5 36.5
t-28.5 22.5t-30 -29t-43 -55q-44 -56 -71 -121q-1 -3 -5 -11.5t-6 -13.5t-4.5 -13.5t-2 -12t2.5 -7.5z" />
    <glyph glyph-name="a" unicode="&#xe0;" horiz-adv-x="596" 
d="M214 307zM615 305q17 18 19 5q0 -10 -6 -20q-5 -8 -16 -25q-31 -49 -52.5 -79t-61 -74.5t-79.5 -61t-79 -3.5q-89 30 -91 134q-26 -31 -50 -56.5t-52 -49.5t-53 -36.5t-48.5 -15t-43.5 12.5t-34 48q-12 26 -5 60t22 66t39.5 65.5t46 58t41.5 43.5q15 13 28 19t22.5 7
t20 -5.5t17 -13t15.5 -21.5t13.5 -24t13.5 -28q5 -10 7 -16q26 35 47 72q6 11 35 -13q28 -22 23 -34q-34 -65 -43 -138q-4 -38 11 -73q11 -20 26 -18q33 6 64.5 21.5t61.5 42.5t49.5 47.5t50 55.5t41.5 47zM22 78q7 -6 43 22.5t85.5 79t88.5 102.5q-7 13 -29.5 36.5
t-28.5 22.5t-30 -29t-43 -55q-44 -56 -71 -121q-1 -3 -5 -11.5t-6 -13.5t-4.5 -13.5t-2 -12t2.5 -7.5z" />
    <glyph glyph-name="b" unicode="b" horiz-adv-x="391" 
d="M227 322q26 10 53.5 3t46 -27.5t22.5 -48t-8 -52.5q-30 -69 -101.5 -136.5t-140.5 -88.5q-75 -23 -110 62l-22 -52q-2 -5 -18 3t-29.5 21.5t-9.5 22.5l287 707q2 5 18 -3t29.5 -21.5t10.5 -22.5l-184 -452q72 54 156 85zM294 275q-6 -3 -22.5 -7.5t-20.5 -6.5
q-31 -15 -61 -34q-84 -52 -163 -113h-1q2 -4 2 -8q0 -24 10 -86q2 1 8 2t9 2q25 11 47 26q108 68 173 177q12 23 19 48z" />
    <glyph glyph-name="c" unicode="c" horiz-adv-x="430" 
d="M468 276q19 18 17 3q-1 -12 -9 -22q-139 -162 -233 -210q-43 -22 -87.5 -24.5t-82 21.5t-49.5 76q-6 28 -2.5 61t16.5 70t30.5 69.5t41 58.5t48 38.5t48.5 8t40.5 -21t28.5 -40t11.5 -48.5t-10.5 -47q-3 -6 -19.5 2.5t-29.5 22.5t-9 22q33 61 4 56q-3 0 -8 -2
q-10 -4 -19.5 -12t-20.5 -22t-14.5 -19.5t-13.5 -21.5q-9 -14 -20 -34t-24.5 -49t-21 -55.5t-7 -50.5t13.5 -35q27 -23 133 26q36 17 126 82t122 97z" />
    <glyph glyph-name="c" unicode="&#xe7;" horiz-adv-x="430" 
d="M468 276q19 18 17 3q-1 -12 -9 -22q-139 -162 -233 -210q-43 -22 -87.5 -24.5t-82 21.5t-49.5 76q-6 28 -2.5 61t16.5 70t30.5 69.5t41 58.5t48 38.5t48.5 8t40.5 -21t28.5 -40t11.5 -48.5t-10.5 -47q-3 -6 -19.5 2.5t-29.5 22.5t-9 22q33 61 4 56q-3 0 -8 -2
q-10 -4 -19.5 -12t-20.5 -22t-14.5 -19.5t-13.5 -21.5q-9 -14 -20 -34t-24.5 -49t-21 -55.5t-7 -50.5t13.5 -35q27 -23 133 26q36 17 126 82t122 97z" />
    <glyph glyph-name="d" unicode="d" horiz-adv-x="584" 
d="M617 265q12 17 15 2q1 -7 -2 -14q-28 -65 -86.5 -125.5t-106.5 -71.5q-33 -7 -66.5 6t-57.5 40t-33 60q-12 50 -3 101q-52 -81 -95 -138q-67 -90 -111 -100q-27 -7 -51.5 6t-33.5 39q-9 18 -10 40.5t5 47.5t12.5 42.5t16.5 41.5q1 2 3 7q11 25 19 41.5t22.5 43t31.5 43
t34 20.5q32 9 60 -21t40 -66q104 160 238 411q3 6 19 -2.5t29.5 -22.5t8.5 -22q-25 -46 -51 -93q-81 -158 -120 -332q0 -1 -2.5 -14t-3.5 -16.5t-3 -15t-2 -17.5t-0.5 -15.5t0.5 -17t3 -14.5q21 -68 133 -6q87 52 148 132zM148 204q28 38 61 89q-1 2 -12.5 16t-22 23
t-16.5 7q-9 -3 -17.5 -12t-14 -18.5t-12.5 -23t-9 -17.5q-28 -47 -54.5 -113t-13.5 -76q14 -12 111 125z" />
    <glyph glyph-name="e" unicode="e" horiz-adv-x="478" 
d="M504 274q21 22 32 14q13 -9 -7 -32q-1 -2 -3 -4q-84 -88 -185.5 -147.5t-202.5 -57.5q-57 1 -91 21.5t-42 52t-1 70.5t27.5 77t48.5 70q77 89 142 103q36 8 58.5 -8t13.5 -51q-6 -26 -26.5 -53t-41.5 -46t-58 -44t-55.5 -36l-55.5 -33q12 -33 51 -49.5t85.5 -15
t87.5 16.5q129 50 223 152zM68 259q-12 -24 -15 -50q37 21 58 34t51 35.5t50 44.5q18 19 21 36.5t-9.5 24.5t-41.5 -1q-34 -11 -65.5 -47.5t-48.5 -76.5z" />
    <glyph glyph-name="e" unicode="&#xeb;" horiz-adv-x="478" 
d="M504 274q21 22 32 14q13 -9 -7 -32q-1 -2 -3 -4q-84 -88 -185.5 -147.5t-202.5 -57.5q-57 1 -91 21.5t-42 52t-1 70.5t27.5 77t48.5 70q77 89 142 103q36 8 58.5 -8t13.5 -51q-6 -26 -26.5 -53t-41.5 -46t-58 -44t-55.5 -36l-55.5 -33q12 -33 51 -49.5t85.5 -15
t87.5 16.5q129 50 223 152zM68 259q-12 -24 -15 -50q37 21 58 34t51 35.5t50 44.5q18 19 21 36.5t-9.5 24.5t-41.5 -1q-34 -11 -65.5 -47.5t-48.5 -76.5z" />
    <glyph glyph-name="e" unicode="&#xea;" horiz-adv-x="478" 
d="M504 274q21 22 32 14q13 -9 -7 -32q-1 -2 -3 -4q-84 -88 -185.5 -147.5t-202.5 -57.5q-57 1 -91 21.5t-42 52t-1 70.5t27.5 77t48.5 70q77 89 142 103q36 8 58.5 -8t13.5 -51q-6 -26 -26.5 -53t-41.5 -46t-58 -44t-55.5 -36l-55.5 -33q12 -33 51 -49.5t85.5 -15
t87.5 16.5q129 50 223 152zM68 259q-12 -24 -15 -50q37 21 58 34t51 35.5t50 44.5q18 19 21 36.5t-9.5 24.5t-41.5 -1q-34 -11 -65.5 -47.5t-48.5 -76.5z" />
    <glyph glyph-name="e" unicode="&#xe9;" horiz-adv-x="478" 
d="M504 274q21 22 32 14q13 -9 -7 -32q-1 -2 -3 -4q-84 -88 -185.5 -147.5t-202.5 -57.5q-57 1 -91 21.5t-42 52t-1 70.5t27.5 77t48.5 70q77 89 142 103q36 8 58.5 -8t13.5 -51q-6 -26 -26.5 -53t-41.5 -46t-58 -44t-55.5 -36l-55.5 -33q12 -33 51 -49.5t85.5 -15
t87.5 16.5q129 50 223 152zM68 259q-12 -24 -15 -50q37 21 58 34t51 35.5t50 44.5q18 19 21 36.5t-9.5 24.5t-41.5 -1q-34 -11 -65.5 -47.5t-48.5 -76.5z" />
    <glyph glyph-name="e" unicode="&#xe8;" horiz-adv-x="478" 
d="M504 274q21 22 32 14q13 -9 -7 -32q-1 -2 -3 -4q-84 -88 -185.5 -147.5t-202.5 -57.5q-57 1 -91 21.5t-42 52t-1 70.5t27.5 77t48.5 70q77 89 142 103q36 8 58.5 -8t13.5 -51q-6 -26 -26.5 -53t-41.5 -46t-58 -44t-55.5 -36l-55.5 -33q12 -33 51 -49.5t85.5 -15
t87.5 16.5q129 50 223 152zM68 259q-12 -24 -15 -50q37 21 58 34t51 35.5t50 44.5q18 19 21 36.5t-9.5 24.5t-41.5 -1q-34 -11 -65.5 -47.5t-48.5 -76.5z" />
    <glyph glyph-name="f" unicode="f" horiz-adv-x="341" 
d="M359 267q16 19 37 19q18 1 2 -21l-4 -6q-81 -93 -183 -162q-43 -29 -104.5 -53t-105.5 -15q6 -59 9 -85q17 -131 5 -262q-15 -114 -78 -156q-19 -12 -41 -17t-44 2.5t-33 27.5q-6 11 -9.5 23.5t-3.5 28.5t0.5 28t4.5 31.5t6 27.5t7.5 28.5t5.5 23.5q37 142 91 277
q3 8 8.5 21t7.5 18q-3 29 2.5 47.5t28.5 30.5q56 138 119 272q7 15 35 30q21 11 21 0l-3 -9q-65 -137 -131 -300q39 -22 77.5 -23.5t72.5 13.5t76 46q68 50 124 114zM-50 -396q14 49 14 116.5t-6 117.5q-2 38 -12 125q-41 -100 -62.5 -182t-16.5 -155q2 -29 18.5 -47.5
t36 -13.5t28.5 39z" />
    <glyph glyph-name="g" unicode="g" horiz-adv-x="591" 
d="M633 339q26 12 24 -3t-16 -22q-197 -100 -356 -255q-13 -43 -27 -85q-4 -14 -26 -85t-32 -100t-31.5 -84t-44.5 -94.5t-50 -73.5t-64.5 -35.5t-67.5 25t-41 67.5q-12 45 3 98t56 110.5t69 91t75 84.5q11 12 16 17q47 52 102 96l24 80q-197 -245 -297 -104
q-14 20 -15.5 44t9.5 50t24 47.5t36 47.5t36 39t33 32q37 36 69.5 52.5t69.5 10.5t71 -42q6 10 22 34q4 6 19 -2t28 -21t11 -20q-22 -91 -48 -180q153 101 319 180zM7 -427q26 26 49 64t38.5 69.5t34 84t26.5 78.5t24 83q-30 -34 -58 -68q-57 -67 -94.5 -123.5t-57.5 -115.5
q-18 -55 -8 -84q9 -27 46 12zM39 82q63 33 118 96t113 151q-10 6 -18 14q-6 7 -14 8.5t-18 -2t-21 -10t-23.5 -16t-23.5 -19.5t-23 -22.5t-21 -22t-18 -20t-14 -16t-8 -9.5q-41 -45 -65 -101q-14 -36 -6 -42t42 11z" />
    <glyph glyph-name="h" unicode="h" horiz-adv-x="544" 
d="M568 269q19 22 36 21q14 -1 -8 -26q-80 -90 -177 -162q-157 -114 -228 -68q-16 10 -23 25t-6.5 30.5t5 34t11 34t12 33t6.5 27.5q3 27 -38 -3.5t-78 -65.5q-71 -69 -125 -153l-6 -14q-2 -5 -18 3t-29.5 21.5t-9.5 22.5l287 707q2 5 18 -3t29.5 -21.5t10.5 -22.5
l-231 -566q61 63 130 117q16 13 40 25t48 16t30 -13q6 -16 2 -36.5t-9.5 -43t-12.5 -44t-7 -38.5t6.5 -27t28 -9t58.5 14q65 25 130 75t118 110z" />
    <glyph glyph-name="i" unicode="i" horiz-adv-x="355" 
d="M400 319q7 6 7 -5q-1 -10 -5 -20q-78 -90 -168 -168q-21 -16 -30 -23t-32.5 -23t-39.5 -23t-37.5 -14.5t-40.5 -6t-36 10.5q-35 18 -41.5 58.5t9 85t36 86.5t38.5 69l18 27q7 11 42 2q18 -6 17 -13q-41 -62 -75 -130q-28 -51 -42 -108q-7 -27 -3 -39.5t23 -8.5
q17 3 35 9.5t36.5 16.5t33 18.5t35 23t31 22.5t32 24.5t28.5 22.5q70 54 129 106zM157 451q-45 -14 -69 -7q-15 4 -10 18q9 20 28 28q6 2 16 -2t15 -3q19 -1 37 5q8 2 11.5 -1t0.5 -11q-9 -20 -29 -27z" />
    <glyph glyph-name="i" unicode="&#xef;" horiz-adv-x="355" 
d="M400 319q7 6 7 -5q-1 -10 -5 -20q-78 -90 -168 -168q-21 -16 -30 -23t-32.5 -23t-39.5 -23t-37.5 -14.5t-40.5 -6t-36 10.5q-35 18 -41.5 58.5t9 85t36 86.5t38.5 69l18 27q7 11 42 2q18 -6 17 -13q-41 -62 -75 -130q-28 -51 -42 -108q-7 -27 -3 -39.5t23 -8.5
q17 3 35 9.5t36.5 16.5t33 18.5t35 23t31 22.5t32 24.5t28.5 22.5q70 54 129 106zM157 451q-45 -14 -69 -7q-15 4 -10 18q9 20 28 28q6 2 16 -2t15 -3q19 -1 37 5q8 2 11.5 -1t0.5 -11q-9 -20 -29 -27z" />
    <glyph glyph-name="i" unicode="&#xee;" horiz-adv-x="355" 
d="M400 319q7 6 7 -5q-1 -10 -5 -20q-78 -90 -168 -168q-21 -16 -30 -23t-32.5 -23t-39.5 -23t-37.5 -14.5t-40.5 -6t-36 10.5q-35 18 -41.5 58.5t9 85t36 86.5t38.5 69l18 27q7 11 42 2q18 -6 17 -13q-41 -62 -75 -130q-28 -51 -42 -108q-7 -27 -3 -39.5t23 -8.5
q17 3 35 9.5t36.5 16.5t33 18.5t35 23t31 22.5t32 24.5t28.5 22.5q70 54 129 106zM157 451q-45 -14 -69 -7q-15 4 -10 18q9 20 28 28q6 2 16 -2t15 -3q19 -1 37 5q8 2 11.5 -1t0.5 -11q-9 -20 -29 -27z" />
    <glyph glyph-name="i" unicode="&#xed;" horiz-adv-x="355" 
d="M400 319q7 6 7 -5q-1 -10 -5 -20q-78 -90 -168 -168q-21 -16 -30 -23t-32.5 -23t-39.5 -23t-37.5 -14.5t-40.5 -6t-36 10.5q-35 18 -41.5 58.5t9 85t36 86.5t38.5 69l18 27q7 11 42 2q18 -6 17 -13q-41 -62 -75 -130q-28 -51 -42 -108q-7 -27 -3 -39.5t23 -8.5
q17 3 35 9.5t36.5 16.5t33 18.5t35 23t31 22.5t32 24.5t28.5 22.5q70 54 129 106zM157 451q-45 -14 -69 -7q-15 4 -10 18q9 20 28 28q6 2 16 -2t15 -3q19 -1 37 5q8 2 11.5 -1t0.5 -11q-9 -20 -29 -27z" />
    <glyph glyph-name="i" unicode="&#xec;" horiz-adv-x="355" 
d="M400 319q7 6 7 -5q-1 -10 -5 -20q-78 -90 -168 -168q-21 -16 -30 -23t-32.5 -23t-39.5 -23t-37.5 -14.5t-40.5 -6t-36 10.5q-35 18 -41.5 58.5t9 85t36 86.5t38.5 69l18 27q7 11 42 2q18 -6 17 -13q-41 -62 -75 -130q-28 -51 -42 -108q-7 -27 -3 -39.5t23 -8.5
q17 3 35 9.5t36.5 16.5t33 18.5t35 23t31 22.5t32 24.5t28.5 22.5q70 54 129 106zM157 451q-45 -14 -69 -7q-15 4 -10 18q9 20 28 28q6 2 16 -2t15 -3q19 -1 37 5q8 2 11.5 -1t0.5 -11q-9 -20 -29 -27z" />
    <glyph glyph-name="j" unicode="j" horiz-adv-x="342" 
d="M117 437q-46 -14 -70 -7q-15 4 -10 18q9 20 28 28q7 1 10.5 0t9.5 -3.5t11 -1.5q19 -1 37 5q8 2 11.5 -1t0.5 -11q-9 -20 -28 -27zM365 307q17 7 35 -2q9 -4 1 -8q-202 -93 -364 -246q-15 -46 -27 -79q-5 -14 -26.5 -80t-32 -93t-31.5 -78t-43 -88t-47.5 -69.5t-58.5 -35
t-60 20.5t-40 62q-7 21 -7 44t4.5 44t16 46t23 45t30 45.5t32 42t34.5 40.5t32 35.5t30 31.5l4.5 4.5l3.5 3.5t3 4q46 47 98 88q48 142 83 265l3 10q1 4 18 4.5t32.5 -5t12.5 -14.5q-38 -131 -56 -193q142 89 297 155zM-225 -386q48 63 82.5 142t70.5 187q-27 -29 -52 -58
q-35 -42 -58 -71t-48 -73t-37 -83q-2 -7 -4 -20t-3.5 -27.5t0 -25t6.5 -11.5q4 0 9 2.5t10.5 8.5t9 10.5t8.5 11.5t6 7z" />
    <glyph glyph-name="k" unicode="k" horiz-adv-x="430" 
d="M454 221q16 19 37 20q18 0 3 -22q-2 -3 -5 -6q-19 -22 -40 -44.5t-52.5 -52t-62.5 -52.5t-66.5 -41.5t-67 -24.5t-62 5t-52.5 41q-23 26 -18 59q-18 -18 -47 -61.5t-50.5 -78t-22.5 -34.5q-9 0 -32.5 23.5t-20.5 30.5l288 707q2 5 18 -3t29.5 -21.5t9.5 -22.5l-220 -541
q34 35 106 100q0 1 9 8.5t16 14t19 17t22 18t22.5 16t22 13t18.5 7t14.5 -0.5t7.5 -12q2 -5 0 -12t-6.5 -13.5t-11.5 -14t-13.5 -13.5t-15.5 -13t-14.5 -11t-13 -9.5t-9.5 -6.5q-5 -4 -21.5 -15t-22.5 -16t-13.5 -15.5t-6 -22t9.5 -25.5q22 -35 64 -41q33 -5 69.5 10
t72 45.5t58.5 54.5t51 56z" />
    <glyph glyph-name="l" unicode="l" horiz-adv-x="464" 
d="M473 286q13 21 46 33q24 8 22 -6q-1 -6 -9 -18q-213 -309 -399 -303q-130 5 -141 146q-10 131 76 316q74 159 161 235q27 23 51 33q90 36 85 -35q-3 -57 -51 -138q-2 -4 -4 -7q-106 -161 -237 -301q-3 -4 -8 -8q-1 -89 45 -137q34 -34 77.5 -34t83 22.5t81.5 62t70 73
t51 66.5zM168 552q-67 -118 -95 -250q86 97 160 205q2 3 10 14t14.5 20.5t15.5 23.5t14 26t9 24t3 22.5t-8 16.5q-6 6 -13 8t-14 0t-14.5 -6.5t-15.5 -12.5t-14.5 -15.5t-14 -18l-12.5 -17.5t-11 -17t-8.5 -14t-5.5 -9z" />
    <glyph glyph-name="m" unicode="m" horiz-adv-x="663" 
d="M668 259q14 20 46 32q24 8 22 -6q-1 -6 -9 -18q-15 -20 -23 -31.5t-29 -40t-37.5 -46t-40 -42.5t-44.5 -38t-43.5 -23.5t-44.5 -8.5t-41 16q-14 11 -20 38t-5.5 57t0 57.5t-8 43t-25 10t-39.5 -26t-35 -37t-36 -49.5t-26 -37q-11 -15 -39 -26q-22 -9 -21 6q0 5 3 12
q22 53 34 108q5 29 3.5 46.5t-14 16.5t-37.5 -24q-86 -85 -156 -184q-9 -12 -37 -25q-26 -12 -24 4q0 2 1 5l79 278q6 19 42 42q34 22 33 5q0 -2 -1 -4l-50 -175q93 117 172 149q35 15 52 2.5t16 -42t-8 -64.5q110 124 172 96q21 -10 28 -29.5t4 -43t-8 -47t-4 -47t12 -37.5
q53 -66 183 123q3 3 4 5z" />
    <glyph glyph-name="n" unicode="n" horiz-adv-x="581" 
d="M585 248q19 27 45 28q19 1 11 -19q-3 -8 -10 -19q-29 -38 -113 -99t-168.5 -91.5t-112.5 35.5q-9 19 -1 70t5 71q-2 12 -5.5 19.5t-9 8.5t-10.5 0t-12.5 -6.5t-13 -10.5t-13.5 -13t-13 -12q-69 -58 -169 -156q-19 -18 -39 -20q-17 -2 -10 22l80 250q6 19 38 38
q34 21 33 0q0 -5 -2 -11l-58 -183q53 50 95 86q1 1 27.5 26t42.5 37.5t40 24.5t41 8q19 -5 27.5 -20.5t7.5 -35.5t-3.5 -44t-5.5 -45t1 -39.5t17 -27.5q24 -13 61.5 -2.5t77 34t72.5 50.5t47 46z" />
    <glyph glyph-name="n" unicode="&#xf1;" horiz-adv-x="581" 
d="M585 248q19 27 45 28q19 1 11 -19q-3 -8 -10 -19q-29 -38 -113 -99t-168.5 -91.5t-112.5 35.5q-9 19 -1 70t5 71q-2 12 -5.5 19.5t-9 8.5t-10.5 0t-12.5 -6.5t-13 -10.5t-13.5 -13t-13 -12q-69 -58 -169 -156q-19 -18 -39 -20q-17 -2 -10 22l80 250q6 19 38 38
q34 21 33 0q0 -5 -2 -11l-58 -183q53 50 95 86q1 1 27.5 26t42.5 37.5t40 24.5t41 8q19 -5 27.5 -20.5t7.5 -35.5t-3.5 -44t-5.5 -45t1 -39.5t17 -27.5q24 -13 61.5 -2.5t77 34t72.5 50.5t47 46z" />
    <glyph glyph-name="o" unicode="o" horiz-adv-x="366" 
d="M395 287q22 15 20 -1q-3 -20 -22 -39q-3 -3 -6 -5q-130 -86 -216 -102q-37 -39 -85 -66.5t-80 -31.5q-78 -8 -72 51q6 57 72 142l4 6q4 4 9 8q7 24 28.5 44t48 30t55.5 6.5t48 -22.5q46 -46 14 -111q30 6 69.5 25t57 30t55.5 36zM14 98q25 -10 54.5 1.5t54.5 35.5
q-29 0 -55 15t-41 40q-3 6 -5 11q-59 -83 -8 -103zM160 194q7 26 -6 50q-3 6 -12.5 13t-20.5 11.5t-22 7.5t-19 1.5t-9 -7.5q-4 -18 14.5 -38t37.5 -29q17 -8 36 -10v0.5t1 0.5z" />
    <glyph glyph-name="o" unicode="&#xf8;" horiz-adv-x="366" 
d="M395 287q22 15 20 -1q-3 -20 -22 -39q-3 -3 -6 -5q-130 -86 -216 -102q-37 -39 -85 -66.5t-80 -31.5q-78 -8 -72 51q6 57 72 142l4 6q4 4 9 8q7 24 28.5 44t48 30t55.5 6.5t48 -22.5q46 -46 14 -111q30 6 69.5 25t57 30t55.5 36zM14 98q25 -10 54.5 1.5t54.5 35.5
q-29 0 -55 15t-41 40q-3 6 -5 11q-59 -83 -8 -103zM160 194q7 26 -6 50q-3 6 -12.5 13t-20.5 11.5t-22 7.5t-19 1.5t-9 -7.5q-4 -18 14.5 -38t37.5 -29q17 -8 36 -10v0.5t1 0.5z" />
    <glyph glyph-name="o" unicode="&#xf6;" horiz-adv-x="366" 
d="M395 287q22 15 20 -1q-3 -20 -22 -39q-3 -3 -6 -5q-130 -86 -216 -102q-37 -39 -85 -66.5t-80 -31.5q-78 -8 -72 51q6 57 72 142l4 6q4 4 9 8q7 24 28.5 44t48 30t55.5 6.5t48 -22.5q46 -46 14 -111q30 6 69.5 25t57 30t55.5 36zM14 98q25 -10 54.5 1.5t54.5 35.5
q-29 0 -55 15t-41 40q-3 6 -5 11q-59 -83 -8 -103zM160 194q7 26 -6 50q-3 6 -12.5 13t-20.5 11.5t-22 7.5t-19 1.5t-9 -7.5q-4 -18 14.5 -38t37.5 -29q17 -8 36 -10v0.5t1 0.5z" />
    <glyph glyph-name="o" unicode="&#xf5;" horiz-adv-x="366" 
d="M395 287q22 15 20 -1q-3 -20 -22 -39q-3 -3 -6 -5q-130 -86 -216 -102q-37 -39 -85 -66.5t-80 -31.5q-78 -8 -72 51q6 57 72 142l4 6q4 4 9 8q7 24 28.5 44t48 30t55.5 6.5t48 -22.5q46 -46 14 -111q30 6 69.5 25t57 30t55.5 36zM14 98q25 -10 54.5 1.5t54.5 35.5
q-29 0 -55 15t-41 40q-3 6 -5 11q-59 -83 -8 -103zM160 194q7 26 -6 50q-3 6 -12.5 13t-20.5 11.5t-22 7.5t-19 1.5t-9 -7.5q-4 -18 14.5 -38t37.5 -29q17 -8 36 -10v0.5t1 0.5z" />
    <glyph glyph-name="o" unicode="&#xf4;" horiz-adv-x="366" 
d="M395 287q22 15 20 -1q-3 -20 -22 -39q-3 -3 -6 -5q-130 -86 -216 -102q-37 -39 -85 -66.5t-80 -31.5q-78 -8 -72 51q6 57 72 142l4 6q4 4 9 8q7 24 28.5 44t48 30t55.5 6.5t48 -22.5q46 -46 14 -111q30 6 69.5 25t57 30t55.5 36zM14 98q25 -10 54.5 1.5t54.5 35.5
q-29 0 -55 15t-41 40q-3 6 -5 11q-59 -83 -8 -103zM160 194q7 26 -6 50q-3 6 -12.5 13t-20.5 11.5t-22 7.5t-19 1.5t-9 -7.5q-4 -18 14.5 -38t37.5 -29q17 -8 36 -10v0.5t1 0.5z" />
    <glyph glyph-name="o" unicode="&#xf3;" horiz-adv-x="366" 
d="M395 287q22 15 20 -1q-3 -20 -22 -39q-3 -3 -6 -5q-130 -86 -216 -102q-37 -39 -85 -66.5t-80 -31.5q-78 -8 -72 51q6 57 72 142l4 6q4 4 9 8q7 24 28.5 44t48 30t55.5 6.5t48 -22.5q46 -46 14 -111q30 6 69.5 25t57 30t55.5 36zM14 98q25 -10 54.5 1.5t54.5 35.5
q-29 0 -55 15t-41 40q-3 6 -5 11q-59 -83 -8 -103zM160 194q7 26 -6 50q-3 6 -12.5 13t-20.5 11.5t-22 7.5t-19 1.5t-9 -7.5q-4 -18 14.5 -38t37.5 -29q17 -8 36 -10v0.5t1 0.5z" />
    <glyph glyph-name="o" unicode="&#xf2;" horiz-adv-x="366" 
d="M395 287q22 15 20 -1q-3 -20 -22 -39q-3 -3 -6 -5q-130 -86 -216 -102q-37 -39 -85 -66.5t-80 -31.5q-78 -8 -72 51q6 57 72 142l4 6q4 4 9 8q7 24 28.5 44t48 30t55.5 6.5t48 -22.5q46 -46 14 -111q30 6 69.5 25t57 30t55.5 36zM14 98q25 -10 54.5 1.5t54.5 35.5
q-29 0 -55 15t-41 40q-3 6 -5 11q-59 -83 -8 -103zM160 194q7 26 -6 50q-3 6 -12.5 13t-20.5 11.5t-22 7.5t-19 1.5t-9 -7.5q-4 -18 14.5 -38t37.5 -29q17 -8 36 -10v0.5t1 0.5z" />
    <glyph glyph-name="p" unicode="p" horiz-adv-x="421" 
d="M444 212q7 15 35 30q23 12 21 -2q-1 -3 -3 -8q-22 -50 -60 -88t-83.5 -58.5t-99.5 -32.5t-107 -11t-106 7q-6 -1 -12 0q-94 -306 -147 -548q-3 -12 -34 9q-27 19 -26 32q71 323 233 817q1 5 17 -3t30 -21t11 -23l-46 -140q22 30 43.5 56.5t49 57t52.5 49t49 29t44 1.5
t33 -37q36 -83 -117 -191q-36 -26 -59 -40q45 -2 85.5 2.5t80.5 16t70.5 36t45.5 60.5zM78 105q40 1 101 38t90.5 80t-2.5 77q-7 7 -16.5 8t-20 -4t-20.5 -11.5t-22 -18.5t-22 -22.5t-22 -26.5t-20 -27t-19 -27.5t-16 -24.5t-13 -21q-7 -10 -9 -13q-1 -2 -3 -4q6 -1 14 -3z
" />
    <glyph glyph-name="q" unicode="q" horiz-adv-x="529" 
d="M550 285q28 20 29 1q-1 -20 -22 -36q-141 -100 -240 -241q-11 -48 -19 -82q-34 -140 -83 -275q0 -3 -7.5 -23t-10.5 -27.5t-11.5 -24.5t-15 -25.5t-17 -18.5t-21.5 -15q-8 -3 -23 7.5t-25 24t-4 17.5q-3 2 -2 8q50 195 154 367q8 31 15 63q11 43 48 224
q-54 -63 -103 -113q-4 -3 -17.5 -17.5t-19 -20t-18.5 -17t-21 -15.5t-20.5 -8.5t-22 -2t-21 9t-22.5 19.5q-59 69 53 266l3 6q11 19 18 29.5t20.5 23t29.5 15.5q29 5 64 -16.5t65 -50.5l4 -4q5 6 11 14t11 14t11.5 14t11.5 14q7 9 34 -12t24 -32q-18 -66 -58 -262
q96 115 218 202zM80 111q108 94 195 207q-12 5 -22 14q-79 78 -160 -154q-1 -2 -2 -3q-1 -5 -11 -64z" />
    <glyph glyph-name="r" unicode="r" horiz-adv-x="406" 
d="M407 240q12 16 38 25q16 5 15 -5q-1 -5 -7 -14q-55 -80 -122.5 -140t-141.5 -73q-27 -6 -45 -3.5t-30.5 8t-18 17.5t-7.5 24t1 29t7.5 32t12 32.5t14 31.5t14.5 28q5 10 7.5 16t1.5 10t-3 5.5t-8 2t-11.5 0.5t-15.5 -0.5t-17 -0.5h-13h-16.5t-14.5 1.5t-14 5t-10 8.5
q-14 23 7.5 58t47.5 55q34 27 61 26q21 -2 17 -29q-3 -29 -49 -73q8 0 45 3.5t38 -1.5q12 -5 16.5 -13t1.5 -19t-7 -19t-13 -21.5t-11 -17.5q-2 -3 -9.5 -16.5t-10.5 -19.5t-8.5 -17.5t-7.5 -21t-2 -18.5q0 -21 11 -33t28.5 -14.5t35.5 -0.5t35 8q81 31 158 144z" />
    <glyph glyph-name="s" unicode="s" horiz-adv-x="379" 
d="M449 346q15 6 14 -4q-2 -18 -26 -41l-11 -7q-77 -31 -164 -71q-18 -8 -51 -24q-26 -88 -93 -151q-29 -25 -89 -36q-73 -13 -75 29q0 10 5 25q9 24 30.5 46.5t54.5 43t57 33t62 29.5v4q14 104 -25 108q-9 1 -24 -10.5t-26.5 -25t-27 -32.5t-18.5 -21q-16 -19 -37 -19
q-19 -1 -3 21q3 3 5 6q4 4 13 15q99 115 147 124q37 7 51 -42q1 -1 1 -2q12 -49 3 -98q112 54 227 100zM88 69q44 21 66 102l-32 -17q-1 0 -31.5 -14.5t-49 -26.5t-23.5 -23q-10 -23 24 -27q26 -3 46 6z" />
    <glyph glyph-name="s" unicode="&#xdf;" horiz-adv-x="379" 
d="M449 346q15 6 14 -4q-2 -18 -26 -41l-11 -7q-77 -31 -164 -71q-18 -8 -51 -24q-26 -88 -93 -151q-29 -25 -89 -36q-73 -13 -75 29q0 10 5 25q9 24 30.5 46.5t54.5 43t57 33t62 29.5v4q14 104 -25 108q-9 1 -24 -10.5t-26.5 -25t-27 -32.5t-18.5 -21q-16 -19 -37 -19
q-19 -1 -3 21q3 3 5 6q4 4 13 15q99 115 147 124q37 7 51 -42q1 -1 1 -2q12 -49 3 -98q112 54 227 100zM88 69q44 21 66 102l-32 -17q-1 0 -31.5 -14.5t-49 -26.5t-23.5 -23q-10 -23 24 -27q26 -3 46 6z" />
    <glyph glyph-name="t" unicode="t" horiz-adv-x="318" 
d="M446 555q21 0 3 -26q-20 -27 -38 -30q-122 -1 -215 -8q-83 -142 -132 -300q-1 -2 -3.5 -11.5t-4 -15t-4.5 -16t-4 -18t-2.5 -17.5t-1 -17t2.5 -14t5 -12q14 -16 62.5 4t81.5 43q97 69 171 162q15 19 29.5 11t-2.5 -32q-23 -35 -34.5 -52t-36.5 -49.5t-44.5 -51.5
t-47 -39.5t-54.5 -31.5q-38 -13 -76.5 -10t-70 28t-39.5 65q-3 16 -3.5 33t1 33.5t6.5 35t10 35t12.5 36t14.5 34.5t16.5 34l16 32l15.5 31l14 28q2 4 18 34q-57 -7 -107 -16q-48 -9 -95 -24q-2 0 -13 -5l-13 -5q1 1 3 2q-24 -12 -22 4q3 19 23 37q4 3 7 4q119 55 250 65
q41 74 81 138q3 6 19.5 -2.5t29.5 -23t8 -21.5q-26 -42 -52 -85q37 2 215 4z" />
    <glyph glyph-name="u" unicode="u" horiz-adv-x="498" 
d="M524 259q31 27 34 3q1 -23 -13 -39q-58 -55 -121 -103q-5 -4 -18 -14.5t-22 -17t-22.5 -16.5t-25 -16.5t-24.5 -13t-25.5 -9t-24.5 -2.5q-81 3 -34 188q-32 -38 -44 -50q-4 -5 -21.5 -24t-26.5 -28.5t-26.5 -26.5t-30.5 -26t-30 -17.5t-32 -11.5q-29 -5 -41.5 11t-7.5 48
t13.5 64t27 73t27 60t18.5 39q10 18 45 37q30 16 28 1q0 -4 -4 -11q-30 -59 -53 -120q-31 -79 -30 -103q2 -26 26 -22q12 2 27.5 13.5t31.5 29.5t29 34.5t27.5 35.5t19.5 25q38 44 67 83q9 11 38 25t22 -9q-1 -3 -3 -10q-71 -220 -19 -234q13 -3 35.5 7.5t52 33.5t50 40.5
t49.5 44.5t31 28z" />
    <glyph glyph-name="u" unicode="&#xfc;" horiz-adv-x="498" 
d="M524 259q31 27 34 3q1 -23 -13 -39q-58 -55 -121 -103q-5 -4 -18 -14.5t-22 -17t-22.5 -16.5t-25 -16.5t-24.5 -13t-25.5 -9t-24.5 -2.5q-81 3 -34 188q-32 -38 -44 -50q-4 -5 -21.5 -24t-26.5 -28.5t-26.5 -26.5t-30.5 -26t-30 -17.5t-32 -11.5q-29 -5 -41.5 11t-7.5 48
t13.5 64t27 73t27 60t18.5 39q10 18 45 37q30 16 28 1q0 -4 -4 -11q-30 -59 -53 -120q-31 -79 -30 -103q2 -26 26 -22q12 2 27.5 13.5t31.5 29.5t29 34.5t27.5 35.5t19.5 25q38 44 67 83q9 11 38 25t22 -9q-1 -3 -3 -10q-71 -220 -19 -234q13 -3 35.5 7.5t52 33.5t50 40.5
t49.5 44.5t31 28z" />
    <glyph glyph-name="u" unicode="&#xfb;" horiz-adv-x="498" 
d="M524 259q31 27 34 3q1 -23 -13 -39q-58 -55 -121 -103q-5 -4 -18 -14.5t-22 -17t-22.5 -16.5t-25 -16.5t-24.5 -13t-25.5 -9t-24.5 -2.5q-81 3 -34 188q-32 -38 -44 -50q-4 -5 -21.5 -24t-26.5 -28.5t-26.5 -26.5t-30.5 -26t-30 -17.5t-32 -11.5q-29 -5 -41.5 11t-7.5 48
t13.5 64t27 73t27 60t18.5 39q10 18 45 37q30 16 28 1q0 -4 -4 -11q-30 -59 -53 -120q-31 -79 -30 -103q2 -26 26 -22q12 2 27.5 13.5t31.5 29.5t29 34.5t27.5 35.5t19.5 25q38 44 67 83q9 11 38 25t22 -9q-1 -3 -3 -10q-71 -220 -19 -234q13 -3 35.5 7.5t52 33.5t50 40.5
t49.5 44.5t31 28z" />
    <glyph glyph-name="u" unicode="&#xfa;" horiz-adv-x="498" 
d="M524 259q31 27 34 3q1 -23 -13 -39q-58 -55 -121 -103q-5 -4 -18 -14.5t-22 -17t-22.5 -16.5t-25 -16.5t-24.5 -13t-25.5 -9t-24.5 -2.5q-81 3 -34 188q-32 -38 -44 -50q-4 -5 -21.5 -24t-26.5 -28.5t-26.5 -26.5t-30.5 -26t-30 -17.5t-32 -11.5q-29 -5 -41.5 11t-7.5 48
t13.5 64t27 73t27 60t18.5 39q10 18 45 37q30 16 28 1q0 -4 -4 -11q-30 -59 -53 -120q-31 -79 -30 -103q2 -26 26 -22q12 2 27.5 13.5t31.5 29.5t29 34.5t27.5 35.5t19.5 25q38 44 67 83q9 11 38 25t22 -9q-1 -3 -3 -10q-71 -220 -19 -234q13 -3 35.5 7.5t52 33.5t50 40.5
t49.5 44.5t31 28z" />
    <glyph glyph-name="u" unicode="&#xf9;" horiz-adv-x="498" 
d="M524 259q31 27 34 3q1 -23 -13 -39q-58 -55 -121 -103q-5 -4 -18 -14.5t-22 -17t-22.5 -16.5t-25 -16.5t-24.5 -13t-25.5 -9t-24.5 -2.5q-81 3 -34 188q-32 -38 -44 -50q-4 -5 -21.5 -24t-26.5 -28.5t-26.5 -26.5t-30.5 -26t-30 -17.5t-32 -11.5q-29 -5 -41.5 11t-7.5 48
t13.5 64t27 73t27 60t18.5 39q10 18 45 37q30 16 28 1q0 -4 -4 -11q-30 -59 -53 -120q-31 -79 -30 -103q2 -26 26 -22q12 2 27.5 13.5t31.5 29.5t29 34.5t27.5 35.5t19.5 25q38 44 67 83q9 11 38 25t22 -9q-1 -3 -3 -10q-71 -220 -19 -234q13 -3 35.5 7.5t52 33.5t50 40.5
t49.5 44.5t31 28z" />
    <glyph glyph-name="v" unicode="v" horiz-adv-x="458" 
d="M501 284q15 -3 4 -19q-26 -37 -65 -62.5t-83.5 -32t-87.5 14.5q-12 6 -22 14q-18 -29 -35 -51q-87 -115 -153 -105q-93 13 -29 282q9 32 39 47q4 2 9 3.5t10.5 2t8.5 -2.5t1 -10q-12 -50 -18 -101q0 -2 -1.5 -15.5t-2.5 -18.5t-2 -18.5t-0.5 -21t1 -19.5t2.5 -19.5
t5.5 -15.5t9.5 -14q40 -45 132 117q-8 37 20.5 78t69.5 57q7 3 9 0q12 4 15 -1.5t-5 -23.5q-3 -5 -24 -43t-32 -57q19 -23 48 -31q61 -20 115 15q14 9 25 21q3 2 6 6q17 26 30 24z" />
    <glyph glyph-name="w" unicode="w" horiz-adv-x="629" 
d="M658 284q15 -3 4 -19q-39 -59 -112 -90t-134 0q-36 -46 -77 -80.5t-76 -46.5q-26 -10 -42.5 -4t-25.5 17.5t-11 32.5t-0.5 42t6.5 46q-27 -31 -49 -54q-3 -3 -10 -10.5t-11.5 -12.5t-14 -14t-15.5 -14.5t-16.5 -14.5t-17.5 -13.5t-17.5 -11t-17 -8t-16 -4t-15.5 1.5
q-12 3 -19 14t-7.5 27.5t1 35t8 42t12.5 44t15 44t15 39t13 33.5t9 22q6 17 38 35q30 18 28 -1q-1 -4 -3 -9q-18 -48 -34 -97q-1 -4 -6 -18t-9.5 -27.5t-10 -31t-8 -31.5t-2 -26.5t4.5 -17.5q10 -11 36.5 9t61 59.5t55 65t37.5 48.5q12 15 37 25q21 8 19 -8q-1 -4 -3 -9
q-54 -149 -13 -178q21 -15 54 13.5t64 76.5q-15 35 16 80.5t69 59.5q8 3 10 0q17 5 16 -11q-10 -63 -47 -116q5 -3 11 -5q44 -17 95.5 -3t74.5 49q17 26 30 24z" />
    <glyph glyph-name="x" unicode="x" horiz-adv-x="291" 
d="M302 132q9 9 17.5 12.5t13 2t6 -6.5t-2.5 -13.5t-12 -16.5q-31 -31 -75 -51t-90.5 -16t-70.5 44q-14 23 -25 48q-66 -59 -166 -135q-5 -5 -17.5 3t-21 18.5t-4.5 13.5q98 72 187 155q-23 70 -37 142q-4 17 26 39q28 21 31 5q14 -66 35 -130q51 55 92 117q3 4 15 -2.5
t21.5 -17t6.5 -15.5q-50 -76 -114 -140q7 -18 10.5 -25.5t11.5 -23.5t17.5 -25.5t19.5 -13.5q24 -10 65.5 1.5t60.5 30.5z" />
    <glyph glyph-name="y" unicode="y" horiz-adv-x="581" 
d="M580 275q45 20 64 1q10 -10 -1 -15q-188 -89 -342 -228q-13 -41 -14 -45q-6 -19 -18.5 -60.5t-20 -65t-20.5 -61.5t-24 -65.5t-25.5 -59.5t-31.5 -60t-35 -52q-41 -52 -92.5 -41t-81.5 73q-12 24 -11.5 52.5t7.5 54t25.5 57t34 54t41.5 53t40 45t38 39.5q7 8 11 11
q55 57 116 107q13 42 14 45q-81 -100 -155 -96q-41 3 -65 21.5t-30.5 49t-5.5 63t12.5 71.5t21.5 66t22 54q2 5 18 -3t29.5 -21.5t9.5 -22.5q-36 -77 -52 -160q-1 -2 -2.5 -11.5t-2 -13t-1 -11t0.5 -11t3 -8t6.5 -7t10.5 -3.5q5 -1 10.5 0.5t12 6t11.5 7.5t13 10t11 10
t10 9.5t7 7.5q88 84 175 250q3 6 18.5 -2t29 -21t11.5 -20q-23 -93 -51 -191q118 79 248 137zM51 -394q48 61 81.5 140.5t66.5 188.5q-40 -41 -75 -83q-33 -38 -53 -64t-43 -65.5t-33 -75.5q-23 -76 10 -80q3 -1 7 0.5t8 4.5t7.5 6t7.5 8l6 7.5t5.5 7.5t4.5 5z" />
    <glyph glyph-name="y" unicode="&#xff;" horiz-adv-x="581" 
d="M580 275q45 20 64 1q10 -10 -1 -15q-188 -89 -342 -228q-13 -41 -14 -45q-6 -19 -18.5 -60.5t-20 -65t-20.5 -61.5t-24 -65.5t-25.5 -59.5t-31.5 -60t-35 -52q-41 -52 -92.5 -41t-81.5 73q-12 24 -11.5 52.5t7.5 54t25.5 57t34 54t41.5 53t40 45t38 39.5q7 8 11 11
q55 57 116 107q13 42 14 45q-81 -100 -155 -96q-41 3 -65 21.5t-30.5 49t-5.5 63t12.5 71.5t21.5 66t22 54q2 5 18 -3t29.5 -21.5t9.5 -22.5q-36 -77 -52 -160q-1 -2 -2.5 -11.5t-2 -13t-1 -11t0.5 -11t3 -8t6.5 -7t10.5 -3.5q5 -1 10.5 0.5t12 6t11.5 7.5t13 10t11 10
t10 9.5t7 7.5q88 84 175 250q3 6 18.5 -2t29 -21t11.5 -20q-23 -93 -51 -191q118 79 248 137zM51 -394q48 61 81.5 140.5t66.5 188.5q-40 -41 -75 -83q-33 -38 -53 -64t-43 -65.5t-33 -75.5q-23 -76 10 -80q3 -1 7 0.5t8 4.5t7.5 6t7.5 8l6 7.5t5.5 7.5t4.5 5z" />
    <glyph glyph-name="y" unicode="&#xfd;" horiz-adv-x="581" 
d="M580 275q45 20 64 1q10 -10 -1 -15q-188 -89 -342 -228q-13 -41 -14 -45q-6 -19 -18.5 -60.5t-20 -65t-20.5 -61.5t-24 -65.5t-25.5 -59.5t-31.5 -60t-35 -52q-41 -52 -92.5 -41t-81.5 73q-12 24 -11.5 52.5t7.5 54t25.5 57t34 54t41.5 53t40 45t38 39.5q7 8 11 11
q55 57 116 107q13 42 14 45q-81 -100 -155 -96q-41 3 -65 21.5t-30.5 49t-5.5 63t12.5 71.5t21.5 66t22 54q2 5 18 -3t29.5 -21.5t9.5 -22.5q-36 -77 -52 -160q-1 -2 -2.5 -11.5t-2 -13t-1 -11t0.5 -11t3 -8t6.5 -7t10.5 -3.5q5 -1 10.5 0.5t12 6t11.5 7.5t13 10t11 10
t10 9.5t7 7.5q88 84 175 250q3 6 18.5 -2t29 -21t11.5 -20q-23 -93 -51 -191q118 79 248 137zM51 -394q48 61 81.5 140.5t66.5 188.5q-40 -41 -75 -83q-33 -38 -53 -64t-43 -65.5t-33 -75.5q-23 -76 10 -80q3 -1 7 0.5t8 4.5t7.5 6t7.5 8l6 7.5t5.5 7.5t4.5 5z" />
    <glyph glyph-name="z" unicode="z" horiz-adv-x="478" 
d="M455 282q42 33 58.5 32.5t8 -24.5t-33.5 -46q-60 -54 -164 -158q0 -126 -73 -273.5t-171 -234.5q-16 -14 -30 -23t-30 -14.5t-33 -3t-34 12.5q-30 15 -46.5 44.5t-14.5 62.5q4 35 21.5 73t36.5 67.5t54.5 70t55.5 61.5t61 60.5t51 49.5q42 42 102 93q0 20 -12 36
q-3 6 -16 4.5t-26 -5t-32 -12.5t-34.5 -16.5t-33 -17.5l-28 -16t-18.5 -12q-7 -4 -23.5 6t-27.5 23.5t-6 17.5q41 34 65.5 55t57.5 55t55 65q5 8 9 17q-7 -3 -16.5 -7t-16.5 -7l-7 -3q-48 -29 -90 -66q-7 -6 -23 4t-27.5 24.5t-6.5 18.5q16 14 34 27.5t45 31t53 27t51 12.5
t45 -10t31 -43q18 -49 -61 -129q69 2 95 -50q21 17 70.5 57.5t74.5 62.5zM208 -92q27 63 40 103q-100 -97 -189 -206q-2 -3 -7 -9q-27 -34 -42 -54t-33 -53.5t-23 -62.5q-7 -24 -4.5 -32t21.5 -5q5 1 11 3.5t10.5 5.5t11 8t10 8t10 10t9 9t9 9.5t7.5 8.5q101 115 159 257z
" />
    <glyph glyph-name="nonbreakingspace" unicode="&#xa0;" horiz-adv-x="350" 
 />
    </font>
</defs>
</svg>
