<?xml version="1.0" encoding="iso-8859-1"?>
<!-- Generator: Adobe Illustrator 19.0.0, SVG Export Plug-In . SVG Version: 6.00 Build 0)  -->
<svg version="1.1" id="Layer_1" xmlns="http://www.w3.org/2000/svg" xmlns:xlink="http://www.w3.org/1999/xlink" x="0px" y="0px"
	 viewBox="0 0 610.96 223.95" style="enable-background:new 0 0 610.96 223.95;" xml:space="preserve">
<path id="XMLID_32_" d="M0,144.917c1.954-2.16,4.16-4.143,5.826-6.507C36.569,94.788,67.333,51.18,97.816,7.376
	c3.324-4.777,6.574-7.028,12.505-6.641c8.416,0.55,16.894,0.139,26.337,0.139c0,47.489,0,94.351,0,141.983
	c13.598,0,26.226,0,39.498,0c0,8.125,0,15.48,0,23.674c-12.858,0-25.483,0-39.106,0c0,19.732,0,38.674,0,58.096
	c-9.38,0-17.76,0-27.15,0c0-18.83,0-37.774,0-57.825c-37.292,0-73.596,0-109.9,0C0,159.507,0,152.212,0,144.917z M109.878,28.05
	c-25.792,37.118-52.445,75.476-79.61,114.569c26.735,0,52.593,0,79.61,0C109.878,103.539,109.878,64.958,109.878,28.05z"/>
<path id="XMLID_29_" d="M610.96,166.802c-12.995,0-25.99,0-39.681,0c0,19.401,0,38.126,0,57.586c-9.268,0-17.874,0-27.504,0
	c0-18.776,0-37.727,0-57.441c-36.713,0-72.426,0-108.667,0c-1.351-10.613-1.855-19.59,4.76-28.807
	c30.956-43.127,61.353-86.659,91.617-130.277c3.772-5.437,7.631-7.578,14.1-7.126c8.089,0.565,16.247,0.136,25.054,0.136
	c0,47.507,0,94.167,0,142.22c13.881,0,27.101,0,40.321,0C610.96,150.997,610.96,158.899,610.96,166.802z M464.293,142.663
	c27.002,0,52.701,0,79.596,0c0-39.055,0-77.656,0-114.55C518.174,65.121,491.526,103.471,464.293,142.663z"/>
<g id="XMLID_1_">
	<path id="XMLID_50_" d="M414.731,112.66c0.732,60.407-50.005,109.731-109.849,109.47c-59.848-0.261-109.154-50.44-108.931-109.898
		C196.174,52.643,246.35,3.032,305.552,3.17C365.997,3.31,415.601,53.802,414.731,112.66z M305.326,203.529
		c49.33,0.855,90.904-41.003,91.125-90.288c0.22-49.289-40.105-89.523-87.035-91.27c-53.661-1.998-92.891,41.327-94.793,86.482
		C212.411,160.953,255.308,204.203,305.326,203.529z"/>
	<path id="XMLID_44_" d="M270.915,166.159c-3.869,0.052-6.953-2.756-7.548-6.577c-0.501-3.212,2.015-6.976,5.546-7.78
		c5.064-1.153,10.185-2.057,15.285-3.048c19.168-3.724,38.337-7.442,57.506-11.159c2.164-0.42,4.327-0.845,6.497-1.229
		c4.337-0.768,8.023,1.657,8.792,5.759c0.716,3.819-2.044,7.585-6.185,8.403c-10.351,2.045-20.702,4.091-31.057,6.115
		c-15.84,3.096-31.683,6.173-47.525,9.258C271.684,166.005,271.146,166.113,270.915,166.159z"/>
	<path id="XMLID_43_" d="M336.733,93.392c0.093-8.704,6.422-14.852,15.114-14.682c8.293,0.162,14.825,6.851,14.708,15.061
		c-0.115,8.062-7,14.811-15.091,14.793C343.081,108.545,336.642,101.913,336.733,93.392z"/>
	<path id="XMLID_42_" d="M274.133,93.473c0.016,8.341-6.661,15.068-14.959,15.07c-8.38,0.003-14.844-6.562-14.86-15.09
		c-0.016-8.404,6.469-14.829,14.878-14.742C267.635,78.798,274.117,85.202,274.133,93.473z"/>
</g>
<g id="XMLID_2_">
</g>
<g id="XMLID_3_">
</g>
<g id="XMLID_4_">
</g>
<g id="XMLID_5_">
</g>
<g id="XMLID_6_">
</g>
<g id="XMLID_7_">
</g>
</svg>
